G04 #@! TF.FileFunction,Copper,L1,Top,Signal*
%FSLAX46Y46*%
G04 Gerber Fmt 4.6, Leading zero omitted, Abs format (unit mm)*
G04 Created by KiCad (PCBNEW 4.0.2+e4-6225~38~ubuntu14.04.1-stable) date Wed 26 Oct 2016 16:13:24 BST*
%MOMM*%
G01*
G04 APERTURE LIST*
%ADD10C,0.100000*%
%ADD11C,2.000000*%
%ADD12C,1.600000*%
%ADD13R,1.150000X1.450000*%
%ADD14R,1.450000X1.150000*%
%ADD15R,0.800000X1.700000*%
%ADD16C,1.000000*%
%ADD17R,0.950000X0.400000*%
%ADD18R,0.600000X1.000000*%
%ADD19C,0.787000*%
%ADD20R,1.350000X0.450000*%
%ADD21C,0.600000*%
%ADD22C,0.300000*%
%ADD23C,0.200000*%
%ADD24C,0.500000*%
%ADD25C,0.400000*%
G04 APERTURE END LIST*
D10*
D11*
X117860000Y-106980000D03*
X117860000Y-109520000D03*
X117860000Y-112060000D03*
X117860000Y-114600000D03*
X120400000Y-114600000D03*
X120400000Y-112060000D03*
X120400000Y-109520000D03*
X120400000Y-106980000D03*
X112750000Y-128750000D03*
X117250000Y-128750000D03*
X117250000Y-122250000D03*
X112750000Y-122250000D03*
X130000000Y-87650000D03*
X130000000Y-132350000D03*
D12*
X121000000Y-124500000D03*
X121000000Y-126500000D03*
X121000000Y-122500000D03*
D11*
X121000000Y-120400000D03*
X121000000Y-128600000D03*
D13*
X130900000Y-127500000D03*
X129100000Y-127500000D03*
X124900000Y-98000000D03*
X123100000Y-98000000D03*
X114200000Y-119900000D03*
X116000000Y-119900000D03*
X124900000Y-96000000D03*
X123100000Y-96000000D03*
X123100000Y-94000000D03*
X124900000Y-94000000D03*
X141600000Y-112500000D03*
X143400000Y-112500000D03*
X136900000Y-94000000D03*
X135100000Y-94000000D03*
X135100000Y-96000000D03*
X136900000Y-96000000D03*
X136900000Y-98000000D03*
X135100000Y-98000000D03*
X130900000Y-129500000D03*
X129100000Y-129500000D03*
X124500000Y-106600000D03*
X126300000Y-106600000D03*
X124600000Y-125500000D03*
X126400000Y-125500000D03*
X135400000Y-127500000D03*
X133600000Y-127500000D03*
X133600000Y-133500000D03*
X135400000Y-133500000D03*
X124600000Y-133500000D03*
X126400000Y-133500000D03*
D14*
X124500000Y-116100000D03*
X124500000Y-117900000D03*
X137000000Y-118600000D03*
X137000000Y-120400000D03*
X135000000Y-120400000D03*
X135000000Y-118600000D03*
D10*
G36*
X119293783Y-98034025D02*
X117997260Y-97384774D01*
X118512183Y-96356497D01*
X119808706Y-97005748D01*
X119293783Y-98034025D01*
X119293783Y-98034025D01*
G37*
G36*
X118487817Y-99643503D02*
X117191294Y-98994252D01*
X117706217Y-97965975D01*
X119002740Y-98615226D01*
X118487817Y-99643503D01*
X118487817Y-99643503D01*
G37*
G36*
X140808706Y-99494252D02*
X139512183Y-100143503D01*
X138997260Y-99115226D01*
X140293783Y-98465975D01*
X140808706Y-99494252D01*
X140808706Y-99494252D01*
G37*
G36*
X140002740Y-97884774D02*
X138706217Y-98534025D01*
X138191294Y-97505748D01*
X139487817Y-96856497D01*
X140002740Y-97884774D01*
X140002740Y-97884774D01*
G37*
G36*
X142002740Y-97384774D02*
X140706217Y-98034025D01*
X140191294Y-97005748D01*
X141487817Y-96356497D01*
X142002740Y-97384774D01*
X142002740Y-97384774D01*
G37*
G36*
X142808706Y-98994252D02*
X141512183Y-99643503D01*
X140997260Y-98615226D01*
X142293783Y-97965975D01*
X142808706Y-98994252D01*
X142808706Y-98994252D01*
G37*
G36*
X135530330Y-88444365D02*
X136555635Y-89469670D01*
X135742462Y-90282843D01*
X134717157Y-89257538D01*
X135530330Y-88444365D01*
X135530330Y-88444365D01*
G37*
G36*
X134257538Y-89717157D02*
X135282843Y-90742462D01*
X134469670Y-91555635D01*
X133444365Y-90530330D01*
X134257538Y-89717157D01*
X134257538Y-89717157D01*
G37*
G36*
X146502740Y-112384774D02*
X145206217Y-113034025D01*
X144691294Y-112005748D01*
X145987817Y-111356497D01*
X146502740Y-112384774D01*
X146502740Y-112384774D01*
G37*
G36*
X147308706Y-113994252D02*
X146012183Y-114643503D01*
X145497260Y-113615226D01*
X146793783Y-112965975D01*
X147308706Y-113994252D01*
X147308706Y-113994252D01*
G37*
G36*
X120487817Y-100143503D02*
X119191294Y-99494252D01*
X119706217Y-98465975D01*
X121002740Y-99115226D01*
X120487817Y-100143503D01*
X120487817Y-100143503D01*
G37*
G36*
X121293783Y-98534025D02*
X119997260Y-97884774D01*
X120512183Y-96856497D01*
X121808706Y-97505748D01*
X121293783Y-98534025D01*
X121293783Y-98534025D01*
G37*
G36*
X113206217Y-112965975D02*
X114502740Y-113615226D01*
X113987817Y-114643503D01*
X112691294Y-113994252D01*
X113206217Y-112965975D01*
X113206217Y-112965975D01*
G37*
G36*
X114012183Y-111356497D02*
X115308706Y-112005748D01*
X114793783Y-113034025D01*
X113497260Y-112384774D01*
X114012183Y-111356497D01*
X114012183Y-111356497D01*
G37*
G36*
X123444365Y-89469670D02*
X124469670Y-88444365D01*
X125282843Y-89257538D01*
X124257538Y-90282843D01*
X123444365Y-89469670D01*
X123444365Y-89469670D01*
G37*
G36*
X124717157Y-90742462D02*
X125742462Y-89717157D01*
X126555635Y-90530330D01*
X125530330Y-91555635D01*
X124717157Y-90742462D01*
X124717157Y-90742462D01*
G37*
D15*
X126250000Y-131000000D03*
X124750000Y-131000000D03*
D10*
G36*
X146693106Y-126176593D02*
X145485998Y-126781068D01*
X145306894Y-126423407D01*
X146514002Y-125818932D01*
X146693106Y-126176593D01*
X146693106Y-126176593D01*
G37*
G36*
X146402063Y-125595392D02*
X145194955Y-126199867D01*
X145015851Y-125842206D01*
X146222959Y-125237731D01*
X146402063Y-125595392D01*
X146402063Y-125595392D01*
G37*
G36*
X146984150Y-126757793D02*
X145777042Y-127362268D01*
X145597938Y-127004607D01*
X146805046Y-126400132D01*
X146984150Y-126757793D01*
X146984150Y-126757793D01*
G37*
G36*
X147275193Y-127338993D02*
X146068085Y-127943468D01*
X145888981Y-127585807D01*
X147096089Y-126981332D01*
X147275193Y-127338993D01*
X147275193Y-127338993D01*
G37*
G36*
X146111020Y-125014192D02*
X144903912Y-125618667D01*
X144724808Y-125261006D01*
X145931916Y-124656531D01*
X146111020Y-125014192D01*
X146111020Y-125014192D01*
G37*
D16*
X144601367Y-124511998D02*
X144824905Y-124400058D01*
X146593895Y-128490984D02*
X146817433Y-128379044D01*
D10*
G36*
X149129370Y-124453335D02*
X147430477Y-125304077D01*
X146624510Y-123694599D01*
X148323403Y-122843857D01*
X149129370Y-124453335D01*
X149129370Y-124453335D01*
G37*
G36*
X150159216Y-126509889D02*
X148460323Y-127360631D01*
X147654356Y-125751153D01*
X149353249Y-124900411D01*
X150159216Y-126509889D01*
X150159216Y-126509889D01*
G37*
G36*
X148077136Y-122352072D02*
X146378243Y-123202815D01*
X145673022Y-121794522D01*
X147371915Y-120943779D01*
X148077136Y-122352072D01*
X148077136Y-122352072D01*
G37*
D16*
X146120100Y-121570642D02*
X146924838Y-121167658D01*
D10*
G36*
X151110704Y-128409966D02*
X149411811Y-129260709D01*
X148706590Y-127852416D01*
X150405483Y-127001673D01*
X151110704Y-128409966D01*
X151110704Y-128409966D01*
G37*
D16*
X149858888Y-129036830D02*
X150663626Y-128633846D01*
D17*
X126600000Y-128650000D03*
X126600000Y-128000000D03*
X126600000Y-127350000D03*
X124400000Y-127350000D03*
X124400000Y-128000000D03*
X124400000Y-128650000D03*
D18*
X135450000Y-129350000D03*
X133550000Y-129350000D03*
X134500000Y-131650000D03*
D19*
X139140000Y-114270000D03*
X137870000Y-114270000D03*
X139140000Y-113000000D03*
X137870000Y-113000000D03*
X139140000Y-111730000D03*
X137870000Y-111730000D03*
D20*
X127125000Y-115575000D03*
X127125000Y-116225000D03*
X127125000Y-116875000D03*
X127125000Y-117525000D03*
X127125000Y-118175000D03*
X127125000Y-118825000D03*
X127125000Y-119475000D03*
X127125000Y-120125000D03*
X127125000Y-120775000D03*
X127125000Y-121425000D03*
X132875000Y-121425000D03*
X132875000Y-120775000D03*
X132875000Y-120125000D03*
X132875000Y-119475000D03*
X132875000Y-118825000D03*
X132875000Y-118175000D03*
X132875000Y-117525000D03*
X132875000Y-116875000D03*
X132875000Y-116225000D03*
X132875000Y-115575000D03*
D13*
X124500000Y-113500000D03*
X126300000Y-113500000D03*
X124500000Y-108900000D03*
X126300000Y-108900000D03*
X124500000Y-111200000D03*
X126300000Y-111200000D03*
D21*
X127725000Y-111225000D03*
X125500000Y-114875000D03*
X139700000Y-120600000D03*
X142000000Y-120600000D03*
X122700000Y-114800000D03*
X115225000Y-111025000D03*
X123300000Y-113500000D03*
X145200000Y-114100000D03*
X140100000Y-111700000D03*
X123300000Y-116100000D03*
X136400000Y-88600000D03*
X123600000Y-88600000D03*
X141000000Y-99304739D03*
X119200000Y-98804739D03*
X136000000Y-120400000D03*
X131900000Y-127500000D03*
X124600000Y-132400000D03*
X135400000Y-128500000D03*
X143700000Y-125800000D03*
X143800000Y-125300000D03*
X144200000Y-125600000D03*
X135400000Y-132400000D03*
X126400000Y-126600000D03*
X130000000Y-124800000D03*
X130000000Y-122100000D03*
X132300000Y-112500000D03*
X130000000Y-120600000D03*
X117000000Y-119900000D03*
X123350000Y-119380000D03*
X124700000Y-120600000D03*
X125600000Y-121100000D03*
D22*
X132875000Y-115575000D02*
X135295000Y-115575000D01*
X135295000Y-115575000D02*
X137870000Y-113000000D01*
X132875000Y-116225000D02*
X135915000Y-116225000D01*
X135915000Y-116225000D02*
X137870000Y-114270000D01*
X132875000Y-116875000D02*
X139275000Y-116875000D01*
X139275000Y-116875000D02*
X141100000Y-118700000D01*
X141100000Y-118700000D02*
X141100000Y-125300000D01*
X141100000Y-125300000D02*
X142500000Y-126700000D01*
X142500000Y-126700000D02*
X143575000Y-126700000D01*
X145400000Y-126700000D02*
X143575000Y-126700000D01*
D23*
X145800000Y-126300000D02*
X145400000Y-126700000D01*
X146000000Y-126300000D02*
X145800000Y-126300000D01*
D22*
X140500000Y-119000000D02*
X140500000Y-125500000D01*
X140500000Y-125500000D02*
X142300000Y-127300000D01*
X142300000Y-127300000D02*
X143680012Y-127300000D01*
X139000000Y-117500000D02*
X140500000Y-119000000D01*
X133875000Y-117500000D02*
X139000000Y-117500000D01*
X132875000Y-117525000D02*
X133850000Y-117525000D01*
X133850000Y-117525000D02*
X133875000Y-117500000D01*
D23*
X146291044Y-126881200D02*
X146118800Y-126881200D01*
X146118800Y-126881200D02*
X145700000Y-127300000D01*
D22*
X145700000Y-127300000D02*
X143680012Y-127300000D01*
D24*
X122200000Y-117900000D02*
X122490000Y-117900000D01*
X122490000Y-117900000D02*
X123100000Y-117900000D01*
X139100000Y-120700000D02*
X139100000Y-121800000D01*
X139100000Y-121800000D02*
X137900000Y-123000000D01*
X137900000Y-123000000D02*
X124000000Y-123000000D01*
X124000000Y-123000000D02*
X122490000Y-121490000D01*
X122490000Y-121490000D02*
X122490000Y-117900000D01*
D22*
X127725000Y-111225000D02*
X126325000Y-111225000D01*
X126325000Y-111225000D02*
X126300000Y-111200000D01*
X125800000Y-118175000D02*
X124775000Y-118175000D01*
X127125000Y-118175000D02*
X125800000Y-118175000D01*
X125800000Y-118175000D02*
X125800000Y-115175000D01*
X125800000Y-115175000D02*
X125500000Y-114875000D01*
D24*
X121925000Y-117900000D02*
X122200000Y-117900000D01*
X120200000Y-117900000D02*
X121925000Y-117900000D01*
D22*
X124500000Y-117900000D02*
X121925000Y-117900000D01*
X126300000Y-108900000D02*
X126300000Y-111200000D01*
X126300000Y-106600000D02*
X126300000Y-108900000D01*
X125875000Y-105150000D02*
X126300000Y-105575000D01*
X126300000Y-105575000D02*
X126300000Y-106600000D01*
X122250000Y-105150000D02*
X125875000Y-105150000D01*
X120420000Y-106980000D02*
X122250000Y-105150000D01*
X120400000Y-106980000D02*
X120420000Y-106980000D01*
D24*
X139100000Y-120700000D02*
X139100000Y-119400000D01*
D22*
X139700000Y-120600000D02*
X139200000Y-120600000D01*
X139200000Y-120600000D02*
X139100000Y-120700000D01*
X139140000Y-114270000D02*
X142000000Y-117130000D01*
X142000000Y-117130000D02*
X142000000Y-120600000D01*
X132875000Y-118175000D02*
X134575000Y-118175000D01*
X134575000Y-118175000D02*
X135000000Y-118600000D01*
D24*
X137000000Y-118600000D02*
X135000000Y-118600000D01*
X139100000Y-119400000D02*
X138300000Y-118600000D01*
X138300000Y-118600000D02*
X137000000Y-118600000D01*
X123100000Y-117900000D02*
X124500000Y-117900000D01*
D22*
X124775000Y-118175000D02*
X124500000Y-117900000D01*
D24*
X119100000Y-119000000D02*
X120200000Y-117900000D01*
X119100000Y-124500000D02*
X119100000Y-119000000D01*
X119100000Y-124500000D02*
X121000000Y-124500000D01*
X122125000Y-115375000D02*
X122700000Y-114800000D01*
X122125000Y-115875000D02*
X122125000Y-115375000D01*
X121400000Y-116600000D02*
X122125000Y-115875000D01*
X119150000Y-116600000D02*
X121400000Y-116600000D01*
X117860000Y-115310000D02*
X119150000Y-116600000D01*
X117860000Y-114600000D02*
X117860000Y-115310000D01*
X114402983Y-111847017D02*
X115225000Y-111025000D01*
X114402983Y-112195261D02*
X114402983Y-111847017D01*
D22*
X114402983Y-112202983D02*
X114402983Y-112195261D01*
X123625000Y-113500000D02*
X123300000Y-113500000D01*
X124500000Y-113500000D02*
X123625000Y-113500000D01*
X124700000Y-113500000D02*
X123825000Y-113500000D01*
X146402983Y-113804739D02*
X145495261Y-113804739D01*
X145495261Y-113804739D02*
X145200000Y-114100000D01*
X139140000Y-111730000D02*
X140070000Y-111730000D01*
D23*
X140070000Y-111730000D02*
X140100000Y-111700000D01*
D22*
X124500000Y-116100000D02*
X123300000Y-116100000D01*
X135636396Y-89363604D02*
X136400000Y-88600000D01*
X124363604Y-89363604D02*
X123600000Y-88600000D01*
X141000000Y-99304739D02*
X141402983Y-99304739D01*
X139902983Y-99304739D02*
X141000000Y-99304739D01*
X141402983Y-99304739D02*
X141902983Y-98804739D01*
X119200000Y-98804739D02*
X119597017Y-98804739D01*
X118097017Y-98804739D02*
X119200000Y-98804739D01*
X119597017Y-98804739D02*
X120097017Y-99304739D01*
X132875000Y-118825000D02*
X133825000Y-118825000D01*
X133825000Y-118825000D02*
X133900000Y-118900000D01*
X133900000Y-118900000D02*
X133900000Y-120325000D01*
X133900000Y-120325000D02*
X133975000Y-120400000D01*
X133975000Y-120400000D02*
X135000000Y-120400000D01*
D24*
X136000000Y-120400000D02*
X135000000Y-120400000D01*
X137000000Y-120400000D02*
X136000000Y-120400000D01*
X130900000Y-127500000D02*
X131900000Y-127500000D01*
D22*
X126400000Y-126600000D02*
X126400000Y-127150000D01*
X126400000Y-127150000D02*
X126600000Y-127350000D01*
D24*
X124600000Y-133500000D02*
X124600000Y-132400000D01*
X135400000Y-127500000D02*
X135400000Y-128500000D01*
X135450000Y-129350000D02*
X135450000Y-128550000D01*
X135450000Y-128550000D02*
X135400000Y-128500000D01*
D23*
X144524264Y-125474264D02*
X144450000Y-125400000D01*
X144750000Y-125474264D02*
X144524264Y-125474264D01*
X144200000Y-125600000D02*
X144624264Y-125600000D01*
X144624264Y-125600000D02*
X144750000Y-125474264D01*
X143800000Y-125300000D02*
X145255513Y-125300000D01*
X145255513Y-125300000D02*
X145417914Y-125137599D01*
X143700000Y-125800000D02*
X144600000Y-125800000D01*
X144600000Y-125800000D02*
X144800000Y-125600000D01*
X143800000Y-125300000D02*
X143800000Y-125700000D01*
X143800000Y-125700000D02*
X143700000Y-125800000D01*
X144200000Y-125600000D02*
X144100000Y-125600000D01*
X144100000Y-125600000D02*
X143800000Y-125300000D01*
X144800000Y-125600000D02*
X144200000Y-125600000D01*
X145262401Y-125137599D02*
X144800000Y-125600000D01*
X145417914Y-125137599D02*
X145262401Y-125137599D01*
D22*
X135400000Y-133500000D02*
X135400000Y-132400000D01*
X126400000Y-125500000D02*
X126400000Y-126600000D01*
X126600000Y-125700000D02*
X126400000Y-125500000D01*
X132875000Y-119475000D02*
X131875000Y-119475000D01*
X131875000Y-119475000D02*
X131500000Y-119100000D01*
X131500000Y-119100000D02*
X131500000Y-99400000D01*
X131500000Y-99400000D02*
X132900000Y-98000000D01*
X132900000Y-98000000D02*
X135100000Y-98000000D01*
X132875000Y-120125000D02*
X131625000Y-120125000D01*
X131625000Y-120125000D02*
X130900000Y-119400000D01*
X130900000Y-119400000D02*
X130900000Y-98000000D01*
X130900000Y-98000000D02*
X132900000Y-96000000D01*
X132900000Y-96000000D02*
X135100000Y-96000000D01*
X132875000Y-120775000D02*
X131375000Y-120775000D01*
X131375000Y-120775000D02*
X130300000Y-119700000D01*
X130300000Y-119700000D02*
X130300000Y-96500000D01*
X130300000Y-96500000D02*
X132800000Y-94000000D01*
X132800000Y-94000000D02*
X135100000Y-94000000D01*
X129100000Y-125700000D02*
X129100000Y-127500000D01*
X130000000Y-124800000D02*
X129100000Y-125700000D01*
X132875000Y-121425000D02*
X130675000Y-121425000D01*
X130675000Y-121425000D02*
X130000000Y-122100000D01*
D24*
X129100000Y-129500000D02*
X129100000Y-127500000D01*
D22*
X140900000Y-109000000D02*
X141600000Y-109700000D01*
X141600000Y-109700000D02*
X141600000Y-112500000D01*
X135800000Y-109000000D02*
X140900000Y-109000000D01*
X132300000Y-112500000D02*
X135800000Y-109000000D01*
X127125000Y-121425000D02*
X129175000Y-121425000D01*
X129175000Y-121425000D02*
X130000000Y-120600000D01*
X124900000Y-94000000D02*
X127200000Y-94000000D01*
X127200000Y-94000000D02*
X129700000Y-96500000D01*
X129700000Y-96500000D02*
X129700000Y-117875000D01*
X129700000Y-117875000D02*
X128100000Y-119475000D01*
X128100000Y-119475000D02*
X127125000Y-119475000D01*
X129100000Y-98000000D02*
X129100000Y-115900000D01*
X128125000Y-116875000D02*
X128100000Y-116875000D01*
X128100000Y-116875000D02*
X127125000Y-116875000D01*
X129100000Y-115900000D02*
X128125000Y-116875000D01*
X129100000Y-98000000D02*
X127100000Y-96000000D01*
X127100000Y-96000000D02*
X124900000Y-96000000D01*
X124900000Y-98000000D02*
X127100000Y-98000000D01*
X127100000Y-98000000D02*
X128500000Y-99400000D01*
X128500000Y-99400000D02*
X128500000Y-115825000D01*
X128500000Y-115825000D02*
X128100000Y-116225000D01*
X128100000Y-116225000D02*
X127125000Y-116225000D01*
X123350000Y-119380000D02*
X124020000Y-119380000D01*
X124020000Y-119380000D02*
X124575000Y-118825000D01*
X116000000Y-119900000D02*
X117000000Y-119900000D01*
X127125000Y-118825000D02*
X124575000Y-118825000D01*
D23*
X145875000Y-127900000D02*
X145975000Y-127800000D01*
X145600000Y-127900000D02*
X145875000Y-127900000D01*
X146000000Y-127900000D02*
X145600000Y-127900000D01*
X146582087Y-127462400D02*
X146437600Y-127462400D01*
X145800000Y-127800000D02*
X145900000Y-127700000D01*
D22*
X145800000Y-127900000D02*
X145600000Y-127900000D01*
D23*
X145800000Y-127900000D02*
X145800000Y-127800000D01*
D24*
X132000000Y-132975000D02*
X132000000Y-131825000D01*
X132000000Y-131825000D02*
X130900000Y-130725000D01*
X130900000Y-130725000D02*
X130900000Y-129500000D01*
X133600000Y-133500000D02*
X132525000Y-133500000D01*
X132525000Y-133500000D02*
X132000000Y-132975000D01*
D22*
X135650000Y-130300000D02*
X135840002Y-130300000D01*
D24*
X134500000Y-131650000D02*
X134500000Y-131450000D01*
X134500000Y-131450000D02*
X135650000Y-130300000D01*
X145600000Y-127900000D02*
X143572892Y-127900000D01*
D23*
X146437600Y-127462400D02*
X146000000Y-127900000D01*
D24*
X133600000Y-133500000D02*
X133600000Y-132550000D01*
X133600000Y-132550000D02*
X134500000Y-131650000D01*
X137900000Y-127900000D02*
X143572892Y-127900000D01*
X136500000Y-129300000D02*
X137900000Y-127900000D01*
D22*
X136100000Y-129700000D02*
X136500000Y-129300000D01*
X136100000Y-130040002D02*
X136100000Y-129700000D01*
X135840002Y-130300000D02*
X136100000Y-130040002D01*
D24*
X131225000Y-123900000D02*
X122400000Y-123900000D01*
X122400000Y-123900000D02*
X121000000Y-122500000D01*
X133600000Y-127500000D02*
X133600000Y-126275000D01*
X133600000Y-126275000D02*
X131225000Y-123900000D01*
X133550000Y-129350000D02*
X133550000Y-127550000D01*
X133550000Y-127550000D02*
X133600000Y-127500000D01*
D22*
X124400000Y-128650000D02*
X126000000Y-128650000D01*
X126000000Y-128650000D02*
X126600000Y-128650000D01*
D24*
X126250000Y-131000000D02*
X126250000Y-128900000D01*
D22*
X126250000Y-128900000D02*
X126000000Y-128650000D01*
D24*
X126400000Y-133500000D02*
X126400000Y-131150000D01*
X126400000Y-131150000D02*
X126250000Y-131000000D01*
X126400000Y-133500000D02*
X128850000Y-133500000D01*
X128850000Y-133500000D02*
X130000000Y-132350000D01*
D25*
X124400000Y-128000000D02*
X123625000Y-128000000D01*
X123625000Y-128000000D02*
X123500000Y-128125000D01*
D24*
X123500000Y-128125000D02*
X123500000Y-129300000D01*
X123500000Y-129300000D02*
X124750000Y-130550000D01*
D22*
X124750000Y-130550000D02*
X124750000Y-131000000D01*
X124400000Y-127350000D02*
X124400000Y-125700000D01*
X124400000Y-125700000D02*
X124600000Y-125500000D01*
X124400000Y-127350000D02*
X121850000Y-127350000D01*
X121850000Y-127350000D02*
X121000000Y-126500000D01*
X126600000Y-128000000D02*
X125825000Y-128000000D01*
X125825000Y-128000000D02*
X125175000Y-127350000D01*
X125175000Y-127350000D02*
X124400000Y-127350000D01*
X123100000Y-94000000D02*
X123100000Y-93172792D01*
X123100000Y-93172792D02*
X125053034Y-91219758D01*
X125053034Y-91219758D02*
X125636396Y-90636396D01*
X115625000Y-114775000D02*
X114654739Y-113804739D01*
X114654739Y-113804739D02*
X113597017Y-113804739D01*
X115625000Y-116550000D02*
X115625000Y-114775000D01*
X114200000Y-117975000D02*
X115625000Y-116550000D01*
X114200000Y-119900000D02*
X114200000Y-117975000D01*
X123100000Y-98000000D02*
X121207722Y-98000000D01*
X121207722Y-98000000D02*
X120902983Y-97695261D01*
X143400000Y-112500000D02*
X145292278Y-112500000D01*
X145292278Y-112500000D02*
X145597017Y-112195261D01*
X136900000Y-94000000D02*
X136900000Y-93172792D01*
X136900000Y-93172792D02*
X134946966Y-91219758D01*
X134946966Y-91219758D02*
X134363604Y-90636396D01*
X136900000Y-96000000D02*
X139901756Y-96000000D01*
X139901756Y-96000000D02*
X141097017Y-97195261D01*
X136900000Y-98000000D02*
X138792278Y-98000000D01*
X138792278Y-98000000D02*
X139097017Y-97695261D01*
X123100000Y-96000000D02*
X120098244Y-96000000D01*
X120098244Y-96000000D02*
X118902983Y-97195261D01*
X118500000Y-112600000D02*
X118400000Y-112500000D01*
X126300000Y-113500000D02*
X126500000Y-113500000D01*
X126500000Y-113500000D02*
X127125000Y-114125000D01*
X127125000Y-115575000D02*
X127125000Y-114125000D01*
X124700000Y-120600000D02*
X125175000Y-120125000D01*
X125175000Y-120125000D02*
X127125000Y-120125000D01*
X125600000Y-121100000D02*
X125925000Y-120775000D01*
X125925000Y-120775000D02*
X127125000Y-120775000D01*
D23*
X121725000Y-108250000D02*
X123375000Y-106600000D01*
X123375000Y-106600000D02*
X124500000Y-106600000D01*
X119250000Y-108250000D02*
X121725000Y-108250000D01*
X117980000Y-109520000D02*
X119250000Y-108250000D01*
X117860000Y-109520000D02*
X117980000Y-109520000D01*
D22*
X117860000Y-109520000D02*
X117880000Y-109520000D01*
X116300000Y-116000000D02*
X116300000Y-111080000D01*
X116300000Y-111080000D02*
X117860000Y-109520000D01*
X118100000Y-117800000D02*
X116300000Y-116000000D01*
X118100000Y-120600000D02*
X118100000Y-117800000D01*
X117250000Y-121450000D02*
X118100000Y-120600000D01*
X117250000Y-122250000D02*
X117250000Y-121450000D01*
X121680000Y-109520000D02*
X122300000Y-108900000D01*
X122300000Y-108900000D02*
X124500000Y-108900000D01*
X120400000Y-109520000D02*
X121680000Y-109520000D01*
X121840000Y-112060000D02*
X122700000Y-111200000D01*
X122700000Y-111200000D02*
X124500000Y-111200000D01*
X120400000Y-112060000D02*
X121840000Y-112060000D01*
D25*
G36*
X131328249Y-133646751D02*
X131853248Y-134171751D01*
X131895525Y-134200000D01*
X129479474Y-134200000D01*
X129521751Y-134171751D01*
X129648659Y-134044843D01*
X129660366Y-134049704D01*
X130336667Y-134050294D01*
X130961715Y-133792030D01*
X131239821Y-133514410D01*
X131328249Y-133646751D01*
X131328249Y-133646751D01*
G37*
X131328249Y-133646751D02*
X131853248Y-134171751D01*
X131895525Y-134200000D01*
X129479474Y-134200000D01*
X129521751Y-134171751D01*
X129648659Y-134044843D01*
X129660366Y-134049704D01*
X130336667Y-134050294D01*
X130961715Y-133792030D01*
X131239821Y-133514410D01*
X131328249Y-133646751D01*
G36*
X128498959Y-125098959D02*
X128314702Y-125374719D01*
X128250000Y-125700000D01*
X128250000Y-126120133D01*
X128027349Y-126263405D01*
X127867518Y-126497326D01*
X127811287Y-126775000D01*
X127811287Y-128225000D01*
X127860097Y-128484404D01*
X127867978Y-128496652D01*
X127867518Y-128497326D01*
X127811287Y-128775000D01*
X127811287Y-130225000D01*
X127860097Y-130484404D01*
X128013405Y-130722651D01*
X128247326Y-130882482D01*
X128525000Y-130938713D01*
X129007488Y-130938713D01*
X128559650Y-131385770D01*
X128300296Y-132010366D01*
X128299825Y-132550000D01*
X127646377Y-132550000D01*
X127639903Y-132515596D01*
X127486595Y-132277349D01*
X127350000Y-132184018D01*
X127350000Y-131917716D01*
X127363713Y-131850000D01*
X127363713Y-130150000D01*
X127314903Y-129890596D01*
X127200000Y-129712032D01*
X127200000Y-129540193D01*
X127334404Y-129514903D01*
X127572651Y-129361595D01*
X127732482Y-129127674D01*
X127788713Y-128850000D01*
X127788713Y-128450000D01*
X127764329Y-128320410D01*
X127788713Y-128200000D01*
X127788713Y-127800000D01*
X127764329Y-127670410D01*
X127788713Y-127550000D01*
X127788713Y-127150000D01*
X127739903Y-126890596D01*
X127586595Y-126652349D01*
X127548158Y-126626086D01*
X127632482Y-126502674D01*
X127688713Y-126225000D01*
X127688713Y-124850000D01*
X128747918Y-124850000D01*
X128498959Y-125098959D01*
X128498959Y-125098959D01*
G37*
X128498959Y-125098959D02*
X128314702Y-125374719D01*
X128250000Y-125700000D01*
X128250000Y-126120133D01*
X128027349Y-126263405D01*
X127867518Y-126497326D01*
X127811287Y-126775000D01*
X127811287Y-128225000D01*
X127860097Y-128484404D01*
X127867978Y-128496652D01*
X127867518Y-128497326D01*
X127811287Y-128775000D01*
X127811287Y-130225000D01*
X127860097Y-130484404D01*
X128013405Y-130722651D01*
X128247326Y-130882482D01*
X128525000Y-130938713D01*
X129007488Y-130938713D01*
X128559650Y-131385770D01*
X128300296Y-132010366D01*
X128299825Y-132550000D01*
X127646377Y-132550000D01*
X127639903Y-132515596D01*
X127486595Y-132277349D01*
X127350000Y-132184018D01*
X127350000Y-131917716D01*
X127363713Y-131850000D01*
X127363713Y-130150000D01*
X127314903Y-129890596D01*
X127200000Y-129712032D01*
X127200000Y-129540193D01*
X127334404Y-129514903D01*
X127572651Y-129361595D01*
X127732482Y-129127674D01*
X127788713Y-128850000D01*
X127788713Y-128450000D01*
X127764329Y-128320410D01*
X127788713Y-128200000D01*
X127788713Y-127800000D01*
X127764329Y-127670410D01*
X127788713Y-127550000D01*
X127788713Y-127150000D01*
X127739903Y-126890596D01*
X127586595Y-126652349D01*
X127548158Y-126626086D01*
X127632482Y-126502674D01*
X127688713Y-126225000D01*
X127688713Y-124850000D01*
X128747918Y-124850000D01*
X128498959Y-125098959D01*
G36*
X132360097Y-128484404D02*
X132513405Y-128722651D01*
X132556160Y-128751864D01*
X132536287Y-128850000D01*
X132536287Y-129850000D01*
X132585097Y-130109404D01*
X132738405Y-130347651D01*
X132972326Y-130507482D01*
X133250000Y-130563713D01*
X133818423Y-130563713D01*
X133702349Y-130638405D01*
X133542518Y-130872326D01*
X133486287Y-131150000D01*
X133486287Y-131320210D01*
X132950000Y-131856498D01*
X132950000Y-131825000D01*
X132877686Y-131461451D01*
X132877686Y-131461450D01*
X132671751Y-131153249D01*
X132087301Y-130568799D01*
X132132482Y-130502674D01*
X132188713Y-130225000D01*
X132188713Y-128775000D01*
X132139903Y-128515596D01*
X132132022Y-128503348D01*
X132132482Y-128502674D01*
X132136180Y-128484414D01*
X132343946Y-128398567D01*
X132360097Y-128484404D01*
X132360097Y-128484404D01*
G37*
X132360097Y-128484404D02*
X132513405Y-128722651D01*
X132556160Y-128751864D01*
X132536287Y-128850000D01*
X132536287Y-129850000D01*
X132585097Y-130109404D01*
X132738405Y-130347651D01*
X132972326Y-130507482D01*
X133250000Y-130563713D01*
X133818423Y-130563713D01*
X133702349Y-130638405D01*
X133542518Y-130872326D01*
X133486287Y-131150000D01*
X133486287Y-131320210D01*
X132950000Y-131856498D01*
X132950000Y-131825000D01*
X132877686Y-131461451D01*
X132877686Y-131461450D01*
X132671751Y-131153249D01*
X132087301Y-130568799D01*
X132132482Y-130502674D01*
X132188713Y-130225000D01*
X132188713Y-128775000D01*
X132139903Y-128515596D01*
X132132022Y-128503348D01*
X132132482Y-128502674D01*
X132136180Y-128484414D01*
X132343946Y-128398567D01*
X132360097Y-128484404D01*
G36*
X115147326Y-121282482D02*
X115425000Y-121338713D01*
X115787666Y-121338713D01*
X115550296Y-121910366D01*
X115549706Y-122586667D01*
X115807970Y-123211715D01*
X116285770Y-123690350D01*
X116910366Y-123949704D01*
X117586667Y-123950294D01*
X118150000Y-123717530D01*
X118150000Y-124500000D01*
X118222314Y-124863549D01*
X118428249Y-125171751D01*
X118736451Y-125377686D01*
X119100000Y-125450000D01*
X119828871Y-125450000D01*
X119878678Y-125499894D01*
X119729103Y-125649209D01*
X119500261Y-126200323D01*
X119499740Y-126797059D01*
X119727620Y-127348572D01*
X119787380Y-127408437D01*
X119575287Y-127620161D01*
X119568921Y-127622064D01*
X119565615Y-127629815D01*
X119559650Y-127635770D01*
X119433100Y-127940538D01*
X119303615Y-128244154D01*
X119303527Y-128252584D01*
X119300296Y-128260366D01*
X119300008Y-128590282D01*
X119296568Y-128920420D01*
X119299713Y-128928243D01*
X119299706Y-128936667D01*
X119408513Y-129200000D01*
X118906231Y-129200000D01*
X118946385Y-129105846D01*
X118946473Y-129097416D01*
X118949704Y-129089634D01*
X118949992Y-128759718D01*
X118953432Y-128429580D01*
X118950287Y-128421757D01*
X118950294Y-128413333D01*
X118824297Y-128108396D01*
X118701146Y-127802096D01*
X118692212Y-127788726D01*
X118692030Y-127788285D01*
X118691690Y-127787945D01*
X118681079Y-127772064D01*
X118673607Y-127769830D01*
X118229839Y-127325287D01*
X118227936Y-127318921D01*
X118220185Y-127315615D01*
X118214230Y-127309650D01*
X117909462Y-127183100D01*
X117605846Y-127053615D01*
X117597416Y-127053527D01*
X117589634Y-127050296D01*
X117259718Y-127050008D01*
X116929580Y-127046568D01*
X116921757Y-127049713D01*
X116913333Y-127049706D01*
X116608396Y-127175703D01*
X116302096Y-127298854D01*
X116288726Y-127307788D01*
X116288285Y-127307970D01*
X116287945Y-127308310D01*
X116272064Y-127318921D01*
X116269830Y-127326393D01*
X115825287Y-127770161D01*
X115818921Y-127772064D01*
X115815615Y-127779815D01*
X115809650Y-127785770D01*
X115683100Y-128090538D01*
X115553615Y-128394154D01*
X115553527Y-128402584D01*
X115550296Y-128410366D01*
X115550008Y-128740282D01*
X115546568Y-129070420D01*
X115549713Y-129078243D01*
X115549706Y-129086667D01*
X115596534Y-129200000D01*
X114406231Y-129200000D01*
X114446385Y-129105846D01*
X114446473Y-129097416D01*
X114449704Y-129089634D01*
X114449992Y-128759718D01*
X114453432Y-128429580D01*
X114450287Y-128421757D01*
X114450294Y-128413333D01*
X114324297Y-128108396D01*
X114201146Y-127802096D01*
X114192212Y-127788726D01*
X114192030Y-127788285D01*
X114191690Y-127787945D01*
X114181079Y-127772064D01*
X114173607Y-127769830D01*
X113729839Y-127325287D01*
X113727936Y-127318921D01*
X113720185Y-127315615D01*
X113714230Y-127309650D01*
X113409462Y-127183100D01*
X113105846Y-127053615D01*
X113097416Y-127053527D01*
X113089634Y-127050296D01*
X112759718Y-127050008D01*
X112429580Y-127046568D01*
X112421757Y-127049713D01*
X112413333Y-127049706D01*
X112108396Y-127175703D01*
X111802096Y-127298854D01*
X111788726Y-127307788D01*
X111788285Y-127307970D01*
X111787945Y-127308310D01*
X111772064Y-127318921D01*
X111769830Y-127326393D01*
X111325287Y-127770161D01*
X111318921Y-127772064D01*
X111315615Y-127779815D01*
X111309650Y-127785770D01*
X111183100Y-128090538D01*
X111053615Y-128394154D01*
X111053527Y-128402584D01*
X111050296Y-128410366D01*
X111050008Y-128740282D01*
X111046568Y-129070420D01*
X111049713Y-129078243D01*
X111049706Y-129086667D01*
X111096534Y-129200000D01*
X108794428Y-129200000D01*
X111628183Y-123532488D01*
X111785770Y-123690350D01*
X112410366Y-123949704D01*
X113086667Y-123950294D01*
X113711715Y-123692030D01*
X114190350Y-123214230D01*
X114449704Y-122589634D01*
X114450294Y-121913333D01*
X114212866Y-121338713D01*
X114775000Y-121338713D01*
X115034404Y-121289903D01*
X115098151Y-121248883D01*
X115147326Y-121282482D01*
X115147326Y-121282482D01*
G37*
X115147326Y-121282482D02*
X115425000Y-121338713D01*
X115787666Y-121338713D01*
X115550296Y-121910366D01*
X115549706Y-122586667D01*
X115807970Y-123211715D01*
X116285770Y-123690350D01*
X116910366Y-123949704D01*
X117586667Y-123950294D01*
X118150000Y-123717530D01*
X118150000Y-124500000D01*
X118222314Y-124863549D01*
X118428249Y-125171751D01*
X118736451Y-125377686D01*
X119100000Y-125450000D01*
X119828871Y-125450000D01*
X119878678Y-125499894D01*
X119729103Y-125649209D01*
X119500261Y-126200323D01*
X119499740Y-126797059D01*
X119727620Y-127348572D01*
X119787380Y-127408437D01*
X119575287Y-127620161D01*
X119568921Y-127622064D01*
X119565615Y-127629815D01*
X119559650Y-127635770D01*
X119433100Y-127940538D01*
X119303615Y-128244154D01*
X119303527Y-128252584D01*
X119300296Y-128260366D01*
X119300008Y-128590282D01*
X119296568Y-128920420D01*
X119299713Y-128928243D01*
X119299706Y-128936667D01*
X119408513Y-129200000D01*
X118906231Y-129200000D01*
X118946385Y-129105846D01*
X118946473Y-129097416D01*
X118949704Y-129089634D01*
X118949992Y-128759718D01*
X118953432Y-128429580D01*
X118950287Y-128421757D01*
X118950294Y-128413333D01*
X118824297Y-128108396D01*
X118701146Y-127802096D01*
X118692212Y-127788726D01*
X118692030Y-127788285D01*
X118691690Y-127787945D01*
X118681079Y-127772064D01*
X118673607Y-127769830D01*
X118229839Y-127325287D01*
X118227936Y-127318921D01*
X118220185Y-127315615D01*
X118214230Y-127309650D01*
X117909462Y-127183100D01*
X117605846Y-127053615D01*
X117597416Y-127053527D01*
X117589634Y-127050296D01*
X117259718Y-127050008D01*
X116929580Y-127046568D01*
X116921757Y-127049713D01*
X116913333Y-127049706D01*
X116608396Y-127175703D01*
X116302096Y-127298854D01*
X116288726Y-127307788D01*
X116288285Y-127307970D01*
X116287945Y-127308310D01*
X116272064Y-127318921D01*
X116269830Y-127326393D01*
X115825287Y-127770161D01*
X115818921Y-127772064D01*
X115815615Y-127779815D01*
X115809650Y-127785770D01*
X115683100Y-128090538D01*
X115553615Y-128394154D01*
X115553527Y-128402584D01*
X115550296Y-128410366D01*
X115550008Y-128740282D01*
X115546568Y-129070420D01*
X115549713Y-129078243D01*
X115549706Y-129086667D01*
X115596534Y-129200000D01*
X114406231Y-129200000D01*
X114446385Y-129105846D01*
X114446473Y-129097416D01*
X114449704Y-129089634D01*
X114449992Y-128759718D01*
X114453432Y-128429580D01*
X114450287Y-128421757D01*
X114450294Y-128413333D01*
X114324297Y-128108396D01*
X114201146Y-127802096D01*
X114192212Y-127788726D01*
X114192030Y-127788285D01*
X114191690Y-127787945D01*
X114181079Y-127772064D01*
X114173607Y-127769830D01*
X113729839Y-127325287D01*
X113727936Y-127318921D01*
X113720185Y-127315615D01*
X113714230Y-127309650D01*
X113409462Y-127183100D01*
X113105846Y-127053615D01*
X113097416Y-127053527D01*
X113089634Y-127050296D01*
X112759718Y-127050008D01*
X112429580Y-127046568D01*
X112421757Y-127049713D01*
X112413333Y-127049706D01*
X112108396Y-127175703D01*
X111802096Y-127298854D01*
X111788726Y-127307788D01*
X111788285Y-127307970D01*
X111787945Y-127308310D01*
X111772064Y-127318921D01*
X111769830Y-127326393D01*
X111325287Y-127770161D01*
X111318921Y-127772064D01*
X111315615Y-127779815D01*
X111309650Y-127785770D01*
X111183100Y-128090538D01*
X111053615Y-128394154D01*
X111053527Y-128402584D01*
X111050296Y-128410366D01*
X111050008Y-128740282D01*
X111046568Y-129070420D01*
X111049713Y-129078243D01*
X111049706Y-129086667D01*
X111096534Y-129200000D01*
X108794428Y-129200000D01*
X111628183Y-123532488D01*
X111785770Y-123690350D01*
X112410366Y-123949704D01*
X113086667Y-123950294D01*
X113711715Y-123692030D01*
X114190350Y-123214230D01*
X114449704Y-122589634D01*
X114450294Y-121913333D01*
X114212866Y-121338713D01*
X114775000Y-121338713D01*
X115034404Y-121289903D01*
X115098151Y-121248883D01*
X115147326Y-121282482D01*
G36*
X145497699Y-129039918D02*
X145622096Y-129200000D01*
X137943502Y-129200000D01*
X138293502Y-128850000D01*
X145445565Y-128850000D01*
X145497699Y-129039918D01*
X145497699Y-129039918D01*
G37*
X145497699Y-129039918D02*
X145622096Y-129200000D01*
X137943502Y-129200000D01*
X138293502Y-128850000D01*
X145445565Y-128850000D01*
X145497699Y-129039918D01*
G36*
X147867046Y-127739226D02*
X147896760Y-127798563D01*
X147941952Y-127837709D01*
X147981948Y-127890295D01*
X147994478Y-127897717D01*
X147994368Y-127898526D01*
X148013043Y-127967489D01*
X148018337Y-128041346D01*
X148050361Y-128105297D01*
X148068421Y-128171988D01*
X148583211Y-129200000D01*
X147687326Y-129200000D01*
X147747668Y-129153109D01*
X147979295Y-128746199D01*
X148037573Y-128281624D01*
X147913629Y-127830110D01*
X147847623Y-127745168D01*
X147858105Y-127727471D01*
X147867046Y-127739226D01*
X147867046Y-127739226D01*
G37*
X147867046Y-127739226D02*
X147896760Y-127798563D01*
X147941952Y-127837709D01*
X147981948Y-127890295D01*
X147994478Y-127897717D01*
X147994368Y-127898526D01*
X148013043Y-127967489D01*
X148018337Y-128041346D01*
X148050361Y-128105297D01*
X148068421Y-128171988D01*
X148583211Y-129200000D01*
X147687326Y-129200000D01*
X147747668Y-129153109D01*
X147979295Y-128746199D01*
X148037573Y-128281624D01*
X147913629Y-127830110D01*
X147847623Y-127745168D01*
X147858105Y-127727471D01*
X147867046Y-127739226D01*
G36*
X139650000Y-125500000D02*
X139714702Y-125825281D01*
X139898959Y-126101041D01*
X140747918Y-126950000D01*
X137900000Y-126950000D01*
X137596767Y-127010317D01*
X137536450Y-127022314D01*
X137228249Y-127228249D01*
X136688713Y-127767785D01*
X136688713Y-126775000D01*
X136639903Y-126515596D01*
X136486595Y-126277349D01*
X136252674Y-126117518D01*
X135975000Y-126061287D01*
X134825000Y-126061287D01*
X134565596Y-126110097D01*
X134522691Y-126137706D01*
X134483812Y-125942247D01*
X134477686Y-125911450D01*
X134271751Y-125603248D01*
X132618502Y-123950000D01*
X137900000Y-123950000D01*
X138203233Y-123889683D01*
X138263550Y-123877686D01*
X138571751Y-123671751D01*
X139650000Y-122593503D01*
X139650000Y-125500000D01*
X139650000Y-125500000D01*
G37*
X139650000Y-125500000D02*
X139714702Y-125825281D01*
X139898959Y-126101041D01*
X140747918Y-126950000D01*
X137900000Y-126950000D01*
X137596767Y-127010317D01*
X137536450Y-127022314D01*
X137228249Y-127228249D01*
X136688713Y-127767785D01*
X136688713Y-126775000D01*
X136639903Y-126515596D01*
X136486595Y-126277349D01*
X136252674Y-126117518D01*
X135975000Y-126061287D01*
X134825000Y-126061287D01*
X134565596Y-126110097D01*
X134522691Y-126137706D01*
X134483812Y-125942247D01*
X134477686Y-125911450D01*
X134271751Y-125603248D01*
X132618502Y-123950000D01*
X137900000Y-123950000D01*
X138203233Y-123889683D01*
X138263550Y-123877686D01*
X138571751Y-123671751D01*
X139650000Y-122593503D01*
X139650000Y-125500000D01*
G36*
X132412699Y-126431202D02*
X132367518Y-126497326D01*
X132346219Y-126602503D01*
X132140155Y-126516937D01*
X132139903Y-126515596D01*
X131986595Y-126277349D01*
X131752674Y-126117518D01*
X131475000Y-126061287D01*
X130325000Y-126061287D01*
X130065596Y-126110097D01*
X130001849Y-126151117D01*
X129952674Y-126117518D01*
X129950000Y-126116976D01*
X129950000Y-126052082D01*
X130204633Y-125797449D01*
X130565714Y-125648253D01*
X130847264Y-125367194D01*
X130994385Y-125012888D01*
X132412699Y-126431202D01*
X132412699Y-126431202D01*
G37*
X132412699Y-126431202D02*
X132367518Y-126497326D01*
X132346219Y-126602503D01*
X132140155Y-126516937D01*
X132139903Y-126515596D01*
X131986595Y-126277349D01*
X131752674Y-126117518D01*
X131475000Y-126061287D01*
X130325000Y-126061287D01*
X130065596Y-126110097D01*
X130001849Y-126151117D01*
X129952674Y-126117518D01*
X129950000Y-126116976D01*
X129950000Y-126052082D01*
X130204633Y-125797449D01*
X130565714Y-125648253D01*
X130847264Y-125367194D01*
X130994385Y-125012888D01*
X132412699Y-126431202D01*
G36*
X123311287Y-126225000D02*
X123360097Y-126484404D01*
X123370133Y-126500000D01*
X122500001Y-126500000D01*
X122500260Y-126202941D01*
X122272380Y-125651428D01*
X122121322Y-125500106D01*
X122270897Y-125350791D01*
X122478843Y-124850000D01*
X123311287Y-124850000D01*
X123311287Y-126225000D01*
X123311287Y-126225000D01*
G37*
X123311287Y-126225000D02*
X123360097Y-126484404D01*
X123370133Y-126500000D01*
X122500001Y-126500000D01*
X122500260Y-126202941D01*
X122272380Y-125651428D01*
X122121322Y-125500106D01*
X122270897Y-125350791D01*
X122478843Y-124850000D01*
X123311287Y-124850000D01*
X123311287Y-126225000D01*
G36*
X140311287Y-113225000D02*
X140360097Y-113484404D01*
X140513405Y-113722651D01*
X140747326Y-113882482D01*
X141025000Y-113938713D01*
X142175000Y-113938713D01*
X142434404Y-113889903D01*
X142498151Y-113848883D01*
X142547326Y-113882482D01*
X142825000Y-113938713D01*
X143975000Y-113938713D01*
X144201918Y-113896016D01*
X144200174Y-113900215D01*
X144199827Y-114298040D01*
X144324217Y-114599087D01*
X144260896Y-114693853D01*
X144255288Y-114722048D01*
X144241054Y-114747018D01*
X144225016Y-114874233D01*
X144200000Y-115000000D01*
X144205607Y-115028191D01*
X144202012Y-115056711D01*
X144235881Y-115180387D01*
X144260896Y-115306147D01*
X144276866Y-115330047D01*
X144284458Y-115357771D01*
X146618005Y-120024866D01*
X146512957Y-120053702D01*
X146432235Y-120072285D01*
X146326966Y-120125000D01*
X145553886Y-120512129D01*
X145553884Y-120512130D01*
X145538081Y-120520044D01*
X145474851Y-120573545D01*
X145184173Y-120799426D01*
X144952545Y-121206335D01*
X144894267Y-121670911D01*
X145018210Y-122122425D01*
X145076747Y-122197754D01*
X145740074Y-123522387D01*
X145784966Y-123581410D01*
X145814680Y-123640747D01*
X145859872Y-123679893D01*
X145899868Y-123732479D01*
X145912398Y-123739901D01*
X145912288Y-123740709D01*
X145930963Y-123809671D01*
X145936257Y-123883530D01*
X145968282Y-123947482D01*
X145970543Y-123955832D01*
X145949041Y-123952908D01*
X145921101Y-123851124D01*
X145633805Y-123481411D01*
X145226895Y-123249784D01*
X144762319Y-123191506D01*
X144310805Y-123315450D01*
X144040845Y-123450636D01*
X143671132Y-123737933D01*
X143439505Y-124144843D01*
X143410120Y-124379094D01*
X143234286Y-124451747D01*
X142952736Y-124732806D01*
X142800174Y-125100215D01*
X142799947Y-125359935D01*
X142700174Y-125600215D01*
X142700089Y-125698007D01*
X141950000Y-124947918D01*
X141950000Y-121599957D01*
X142198040Y-121600173D01*
X142565714Y-121448253D01*
X142847264Y-121167194D01*
X142999826Y-120799785D01*
X143000173Y-120401960D01*
X142850000Y-120038514D01*
X142850000Y-117130000D01*
X142785298Y-116804719D01*
X142601041Y-116528959D01*
X140233595Y-114161513D01*
X140233689Y-114053444D01*
X140067565Y-113651391D01*
X140051443Y-113635241D01*
X140066484Y-113620227D01*
X140233310Y-113218465D01*
X140233689Y-112783444D01*
X140199247Y-112700087D01*
X140298040Y-112700173D01*
X140311287Y-112694699D01*
X140311287Y-113225000D01*
X140311287Y-113225000D01*
G37*
X140311287Y-113225000D02*
X140360097Y-113484404D01*
X140513405Y-113722651D01*
X140747326Y-113882482D01*
X141025000Y-113938713D01*
X142175000Y-113938713D01*
X142434404Y-113889903D01*
X142498151Y-113848883D01*
X142547326Y-113882482D01*
X142825000Y-113938713D01*
X143975000Y-113938713D01*
X144201918Y-113896016D01*
X144200174Y-113900215D01*
X144199827Y-114298040D01*
X144324217Y-114599087D01*
X144260896Y-114693853D01*
X144255288Y-114722048D01*
X144241054Y-114747018D01*
X144225016Y-114874233D01*
X144200000Y-115000000D01*
X144205607Y-115028191D01*
X144202012Y-115056711D01*
X144235881Y-115180387D01*
X144260896Y-115306147D01*
X144276866Y-115330047D01*
X144284458Y-115357771D01*
X146618005Y-120024866D01*
X146512957Y-120053702D01*
X146432235Y-120072285D01*
X146326966Y-120125000D01*
X145553886Y-120512129D01*
X145553884Y-120512130D01*
X145538081Y-120520044D01*
X145474851Y-120573545D01*
X145184173Y-120799426D01*
X144952545Y-121206335D01*
X144894267Y-121670911D01*
X145018210Y-122122425D01*
X145076747Y-122197754D01*
X145740074Y-123522387D01*
X145784966Y-123581410D01*
X145814680Y-123640747D01*
X145859872Y-123679893D01*
X145899868Y-123732479D01*
X145912398Y-123739901D01*
X145912288Y-123740709D01*
X145930963Y-123809671D01*
X145936257Y-123883530D01*
X145968282Y-123947482D01*
X145970543Y-123955832D01*
X145949041Y-123952908D01*
X145921101Y-123851124D01*
X145633805Y-123481411D01*
X145226895Y-123249784D01*
X144762319Y-123191506D01*
X144310805Y-123315450D01*
X144040845Y-123450636D01*
X143671132Y-123737933D01*
X143439505Y-124144843D01*
X143410120Y-124379094D01*
X143234286Y-124451747D01*
X142952736Y-124732806D01*
X142800174Y-125100215D01*
X142799947Y-125359935D01*
X142700174Y-125600215D01*
X142700089Y-125698007D01*
X141950000Y-124947918D01*
X141950000Y-121599957D01*
X142198040Y-121600173D01*
X142565714Y-121448253D01*
X142847264Y-121167194D01*
X142999826Y-120799785D01*
X143000173Y-120401960D01*
X142850000Y-120038514D01*
X142850000Y-117130000D01*
X142785298Y-116804719D01*
X142601041Y-116528959D01*
X140233595Y-114161513D01*
X140233689Y-114053444D01*
X140067565Y-113651391D01*
X140051443Y-113635241D01*
X140066484Y-113620227D01*
X140233310Y-113218465D01*
X140233689Y-112783444D01*
X140199247Y-112700087D01*
X140298040Y-112700173D01*
X140311287Y-112694699D01*
X140311287Y-113225000D01*
G36*
X135997326Y-121632482D02*
X136275000Y-121688713D01*
X137725000Y-121688713D01*
X137900878Y-121655619D01*
X137506498Y-122050000D01*
X134123900Y-122050000D01*
X134207482Y-121927674D01*
X134256627Y-121684992D01*
X134275000Y-121688713D01*
X135725000Y-121688713D01*
X135984404Y-121639903D01*
X135996652Y-121632022D01*
X135997326Y-121632482D01*
X135997326Y-121632482D01*
G37*
X135997326Y-121632482D02*
X136275000Y-121688713D01*
X137725000Y-121688713D01*
X137900878Y-121655619D01*
X137506498Y-122050000D01*
X134123900Y-122050000D01*
X134207482Y-121927674D01*
X134256627Y-121684992D01*
X134275000Y-121688713D01*
X135725000Y-121688713D01*
X135984404Y-121639903D01*
X135996652Y-121632022D01*
X135997326Y-121632482D01*
G36*
X123700174Y-120400215D02*
X123699827Y-120798040D01*
X123851747Y-121165714D01*
X124132806Y-121447264D01*
X124500215Y-121599826D01*
X124724603Y-121600022D01*
X124751747Y-121665714D01*
X125032806Y-121947264D01*
X125280221Y-122050000D01*
X124393503Y-122050000D01*
X123440000Y-121096498D01*
X123440000Y-120380079D01*
X123548040Y-120380173D01*
X123741728Y-120300143D01*
X123700174Y-120400215D01*
X123700174Y-120400215D01*
G37*
X123700174Y-120400215D02*
X123699827Y-120798040D01*
X123851747Y-121165714D01*
X124132806Y-121447264D01*
X124500215Y-121599826D01*
X124724603Y-121600022D01*
X124751747Y-121665714D01*
X125032806Y-121947264D01*
X125280221Y-122050000D01*
X124393503Y-122050000D01*
X123440000Y-121096498D01*
X123440000Y-120380079D01*
X123548040Y-120380173D01*
X123741728Y-120300143D01*
X123700174Y-120400215D01*
G36*
X129450000Y-119700000D02*
X129458318Y-119741817D01*
X129434286Y-119751747D01*
X129152736Y-120032806D01*
X129001929Y-120395989D01*
X128822918Y-120575000D01*
X128513713Y-120575000D01*
X128513713Y-120550000D01*
X128494206Y-120446328D01*
X128513713Y-120350000D01*
X128513713Y-120201210D01*
X128701041Y-120076041D01*
X129450000Y-119327082D01*
X129450000Y-119700000D01*
X129450000Y-119700000D01*
G37*
X129450000Y-119700000D02*
X129458318Y-119741817D01*
X129434286Y-119751747D01*
X129152736Y-120032806D01*
X129001929Y-120395989D01*
X128822918Y-120575000D01*
X128513713Y-120575000D01*
X128513713Y-120550000D01*
X128494206Y-120446328D01*
X128513713Y-120350000D01*
X128513713Y-120201210D01*
X128701041Y-120076041D01*
X129450000Y-119327082D01*
X129450000Y-119700000D01*
G36*
X117250000Y-118152081D02*
X117250000Y-118921025D01*
X117240155Y-118916937D01*
X117239903Y-118915596D01*
X117086595Y-118677349D01*
X116852674Y-118517518D01*
X116575000Y-118461287D01*
X115425000Y-118461287D01*
X115165596Y-118510097D01*
X115101849Y-118551117D01*
X115052674Y-118517518D01*
X115050000Y-118516976D01*
X115050000Y-118327082D01*
X116226041Y-117151041D01*
X116235221Y-117137302D01*
X117250000Y-118152081D01*
X117250000Y-118152081D01*
G37*
X117250000Y-118152081D02*
X117250000Y-118921025D01*
X117240155Y-118916937D01*
X117239903Y-118915596D01*
X117086595Y-118677349D01*
X116852674Y-118517518D01*
X116575000Y-118461287D01*
X115425000Y-118461287D01*
X115165596Y-118510097D01*
X115101849Y-118551117D01*
X115052674Y-118517518D01*
X115050000Y-118516976D01*
X115050000Y-118327082D01*
X116226041Y-117151041D01*
X116235221Y-117137302D01*
X117250000Y-118152081D01*
G36*
X128850000Y-117522918D02*
X128499334Y-117873584D01*
X128494206Y-117846328D01*
X128513713Y-117750000D01*
X128513713Y-117617914D01*
X128726041Y-117476041D01*
X128850000Y-117352082D01*
X128850000Y-117522918D01*
X128850000Y-117522918D01*
G37*
X128850000Y-117522918D02*
X128499334Y-117873584D01*
X128494206Y-117846328D01*
X128513713Y-117750000D01*
X128513713Y-117617914D01*
X128726041Y-117476041D01*
X128850000Y-117352082D01*
X128850000Y-117522918D01*
G36*
X119150000Y-117550000D02*
X119206498Y-117550000D01*
X118950000Y-117806498D01*
X118950000Y-117800000D01*
X118889985Y-117498280D01*
X119150000Y-117550000D01*
X119150000Y-117550000D01*
G37*
X119150000Y-117550000D02*
X119206498Y-117550000D01*
X118950000Y-117806498D01*
X118950000Y-117800000D01*
X118889985Y-117498280D01*
X119150000Y-117550000D01*
G36*
X141150000Y-117482082D02*
X141150000Y-117547918D01*
X139876041Y-116273959D01*
X139600281Y-116089702D01*
X139578162Y-116085302D01*
X139613779Y-115998922D01*
X139629348Y-115961430D01*
X141150000Y-117482082D01*
X141150000Y-117482082D01*
G37*
X141150000Y-117482082D02*
X141150000Y-117547918D01*
X139876041Y-116273959D01*
X139600281Y-116089702D01*
X139578162Y-116085302D01*
X139613779Y-115998922D01*
X139629348Y-115961430D01*
X141150000Y-117482082D01*
G36*
X122732806Y-116947264D02*
X122739395Y-116950000D01*
X122393502Y-116950000D01*
X122564669Y-116778833D01*
X122732806Y-116947264D01*
X122732806Y-116947264D01*
G37*
X122732806Y-116947264D02*
X122739395Y-116950000D01*
X122393502Y-116950000D01*
X122564669Y-116778833D01*
X122732806Y-116947264D01*
G36*
X137406610Y-116025000D02*
X137317082Y-116025000D01*
X137380388Y-115961694D01*
X137406610Y-116025000D01*
X137406610Y-116025000D01*
G37*
X137406610Y-116025000D02*
X137317082Y-116025000D01*
X137380388Y-115961694D01*
X137406610Y-116025000D01*
G36*
X136380221Y-110001078D02*
X136289209Y-110220258D01*
X136289208Y-110221805D01*
X136288618Y-110223235D01*
X136289000Y-110460480D01*
X136288793Y-110697647D01*
X136289384Y-110699076D01*
X136289386Y-110700624D01*
X136470598Y-111138108D01*
X136470797Y-111138130D01*
X136471097Y-111138857D01*
X136796206Y-111464535D01*
X136776690Y-111511535D01*
X136776311Y-111946556D01*
X136942435Y-112348609D01*
X136958557Y-112364759D01*
X136943516Y-112379773D01*
X136776690Y-112781535D01*
X136776594Y-112891324D01*
X134942918Y-114725000D01*
X133875213Y-114725000D01*
X133827674Y-114692518D01*
X133550000Y-114636287D01*
X132350000Y-114636287D01*
X132350000Y-113500044D01*
X132498040Y-113500173D01*
X132865714Y-113348253D01*
X133147264Y-113067194D01*
X133298071Y-112704010D01*
X136152081Y-109850000D01*
X136442515Y-109850000D01*
X136380221Y-110001078D01*
X136380221Y-110001078D01*
G37*
X136380221Y-110001078D02*
X136289209Y-110220258D01*
X136289208Y-110221805D01*
X136288618Y-110223235D01*
X136289000Y-110460480D01*
X136288793Y-110697647D01*
X136289384Y-110699076D01*
X136289386Y-110700624D01*
X136470598Y-111138108D01*
X136470797Y-111138130D01*
X136471097Y-111138857D01*
X136796206Y-111464535D01*
X136776690Y-111511535D01*
X136776311Y-111946556D01*
X136942435Y-112348609D01*
X136958557Y-112364759D01*
X136943516Y-112379773D01*
X136776690Y-112781535D01*
X136776594Y-112891324D01*
X134942918Y-114725000D01*
X133875213Y-114725000D01*
X133827674Y-114692518D01*
X133550000Y-114636287D01*
X132350000Y-114636287D01*
X132350000Y-113500044D01*
X132498040Y-113500173D01*
X132865714Y-113348253D01*
X133147264Y-113067194D01*
X133298071Y-112704010D01*
X136152081Y-109850000D01*
X136442515Y-109850000D01*
X136380221Y-110001078D01*
G36*
X123260097Y-112184404D02*
X123367395Y-112351150D01*
X123267518Y-112497326D01*
X123266982Y-112499971D01*
X123101960Y-112499827D01*
X122734286Y-112651747D01*
X122452736Y-112932806D01*
X122300174Y-113300215D01*
X122299827Y-113698040D01*
X122365228Y-113856323D01*
X122134286Y-113951747D01*
X122019072Y-114066760D01*
X121842030Y-113638285D01*
X121534164Y-113329881D01*
X121840350Y-113024230D01*
X121892084Y-112899640D01*
X122165281Y-112845298D01*
X122441041Y-112661041D01*
X123052082Y-112050000D01*
X123234807Y-112050000D01*
X123260097Y-112184404D01*
X123260097Y-112184404D01*
G37*
X123260097Y-112184404D02*
X123367395Y-112351150D01*
X123267518Y-112497326D01*
X123266982Y-112499971D01*
X123101960Y-112499827D01*
X122734286Y-112651747D01*
X122452736Y-112932806D01*
X122300174Y-113300215D01*
X122299827Y-113698040D01*
X122365228Y-113856323D01*
X122134286Y-113951747D01*
X122019072Y-114066760D01*
X121842030Y-113638285D01*
X121534164Y-113329881D01*
X121840350Y-113024230D01*
X121892084Y-112899640D01*
X122165281Y-112845298D01*
X122441041Y-112661041D01*
X123052082Y-112050000D01*
X123234807Y-112050000D01*
X123260097Y-112184404D01*
G36*
X119265836Y-113330119D02*
X119129881Y-113465836D01*
X118994164Y-113329881D01*
X119130119Y-113194164D01*
X119265836Y-113330119D01*
X119265836Y-113330119D01*
G37*
X119265836Y-113330119D02*
X119129881Y-113465836D01*
X118994164Y-113329881D01*
X119130119Y-113194164D01*
X119265836Y-113330119D01*
G36*
X127525215Y-112224826D02*
X127650000Y-112224935D01*
X127650000Y-113447919D01*
X127588713Y-113386632D01*
X127588713Y-112775000D01*
X127539903Y-112515596D01*
X127432605Y-112348850D01*
X127519085Y-112222281D01*
X127525215Y-112224826D01*
X127525215Y-112224826D01*
G37*
X127525215Y-112224826D02*
X127650000Y-112224935D01*
X127650000Y-113447919D01*
X127588713Y-113386632D01*
X127588713Y-112775000D01*
X127539903Y-112515596D01*
X127432605Y-112348850D01*
X127519085Y-112222281D01*
X127525215Y-112224826D01*
G36*
X115450000Y-113397918D02*
X115420417Y-113368335D01*
X115431952Y-113353597D01*
X115450000Y-113317556D01*
X115450000Y-113397918D01*
X115450000Y-113397918D01*
G37*
X115450000Y-113397918D02*
X115420417Y-113368335D01*
X115431952Y-113353597D01*
X115450000Y-113317556D01*
X115450000Y-113397918D01*
G36*
X133860097Y-98984404D02*
X134013405Y-99222651D01*
X134247326Y-99382482D01*
X134525000Y-99438713D01*
X135675000Y-99438713D01*
X135934404Y-99389903D01*
X135998151Y-99348883D01*
X136047326Y-99382482D01*
X136325000Y-99438713D01*
X137475000Y-99438713D01*
X137734404Y-99389903D01*
X137972651Y-99236595D01*
X138132482Y-99002674D01*
X138142775Y-98951846D01*
X138227842Y-99063689D01*
X138293063Y-99102321D01*
X138285038Y-99161336D01*
X138359091Y-99434798D01*
X138874014Y-100463075D01*
X139033808Y-100673167D01*
X139277566Y-100817551D01*
X139558293Y-100855725D01*
X139831755Y-100781672D01*
X139963438Y-100715730D01*
X145105610Y-111000075D01*
X144502512Y-111302084D01*
X144486595Y-111277349D01*
X144252674Y-111117518D01*
X143975000Y-111061287D01*
X142825000Y-111061287D01*
X142565596Y-111110097D01*
X142501849Y-111151117D01*
X142452674Y-111117518D01*
X142450000Y-111116976D01*
X142450000Y-109700000D01*
X142385298Y-109374719D01*
X142201041Y-109098959D01*
X142201038Y-109098957D01*
X141501041Y-108398959D01*
X141225281Y-108214702D01*
X140900000Y-108150000D01*
X135800000Y-108150000D01*
X135474719Y-108214702D01*
X135198959Y-108398959D01*
X135198957Y-108398962D01*
X132350000Y-111247918D01*
X132350000Y-99752082D01*
X133252082Y-98850000D01*
X133834807Y-98850000D01*
X133860097Y-98984404D01*
X133860097Y-98984404D01*
G37*
X133860097Y-98984404D02*
X134013405Y-99222651D01*
X134247326Y-99382482D01*
X134525000Y-99438713D01*
X135675000Y-99438713D01*
X135934404Y-99389903D01*
X135998151Y-99348883D01*
X136047326Y-99382482D01*
X136325000Y-99438713D01*
X137475000Y-99438713D01*
X137734404Y-99389903D01*
X137972651Y-99236595D01*
X138132482Y-99002674D01*
X138142775Y-98951846D01*
X138227842Y-99063689D01*
X138293063Y-99102321D01*
X138285038Y-99161336D01*
X138359091Y-99434798D01*
X138874014Y-100463075D01*
X139033808Y-100673167D01*
X139277566Y-100817551D01*
X139558293Y-100855725D01*
X139831755Y-100781672D01*
X139963438Y-100715730D01*
X145105610Y-111000075D01*
X144502512Y-111302084D01*
X144486595Y-111277349D01*
X144252674Y-111117518D01*
X143975000Y-111061287D01*
X142825000Y-111061287D01*
X142565596Y-111110097D01*
X142501849Y-111151117D01*
X142452674Y-111117518D01*
X142450000Y-111116976D01*
X142450000Y-109700000D01*
X142385298Y-109374719D01*
X142201041Y-109098959D01*
X142201038Y-109098957D01*
X141501041Y-108398959D01*
X141225281Y-108214702D01*
X140900000Y-108150000D01*
X135800000Y-108150000D01*
X135474719Y-108214702D01*
X135198959Y-108398959D01*
X135198957Y-108398962D01*
X132350000Y-111247918D01*
X132350000Y-99752082D01*
X133252082Y-98850000D01*
X133834807Y-98850000D01*
X133860097Y-98984404D01*
G36*
X123260097Y-109884404D02*
X123367395Y-110051150D01*
X123267518Y-110197326D01*
X123236600Y-110350000D01*
X122700005Y-110350000D01*
X122700000Y-110349999D01*
X122374719Y-110414702D01*
X122098959Y-110598959D01*
X121720937Y-110976981D01*
X121534164Y-110789881D01*
X121840350Y-110484230D01*
X121906489Y-110324949D01*
X122005281Y-110305298D01*
X122281041Y-110121041D01*
X122652081Y-109750000D01*
X123234807Y-109750000D01*
X123260097Y-109884404D01*
X123260097Y-109884404D01*
G37*
X123260097Y-109884404D02*
X123367395Y-110051150D01*
X123267518Y-110197326D01*
X123236600Y-110350000D01*
X122700005Y-110350000D01*
X122700000Y-110349999D01*
X122374719Y-110414702D01*
X122098959Y-110598959D01*
X121720937Y-110976981D01*
X121534164Y-110789881D01*
X121840350Y-110484230D01*
X121906489Y-110324949D01*
X122005281Y-110305298D01*
X122281041Y-110121041D01*
X122652081Y-109750000D01*
X123234807Y-109750000D01*
X123260097Y-109884404D01*
G36*
X140750000Y-110052081D02*
X140750000Y-110935687D01*
X140667194Y-110852736D01*
X140658723Y-110849218D01*
X140720791Y-110699742D01*
X140720792Y-110698195D01*
X140721382Y-110696765D01*
X140721000Y-110459520D01*
X140721207Y-110222353D01*
X140720616Y-110220924D01*
X140720614Y-110219376D01*
X140581540Y-109883621D01*
X140750000Y-110052081D01*
X140750000Y-110052081D01*
G37*
X140750000Y-110052081D02*
X140750000Y-110935687D01*
X140667194Y-110852736D01*
X140658723Y-110849218D01*
X140720791Y-110699742D01*
X140720792Y-110698195D01*
X140721382Y-110696765D01*
X140721000Y-110459520D01*
X140721207Y-110222353D01*
X140720616Y-110220924D01*
X140720614Y-110219376D01*
X140581540Y-109883621D01*
X140750000Y-110052081D01*
G36*
X119265836Y-110790119D02*
X119129881Y-110925836D01*
X118994164Y-110789881D01*
X119130119Y-110654164D01*
X119265836Y-110790119D01*
X119265836Y-110790119D01*
G37*
X119265836Y-110790119D02*
X119129881Y-110925836D01*
X118994164Y-110789881D01*
X119130119Y-110654164D01*
X119265836Y-110790119D01*
G36*
X116725836Y-108250119D02*
X116419650Y-108555770D01*
X116160296Y-109180366D01*
X116159706Y-109856667D01*
X116206939Y-109970979D01*
X115896097Y-110281821D01*
X115792194Y-110177736D01*
X115424785Y-110025174D01*
X115381859Y-110025137D01*
X116421701Y-107945453D01*
X116725836Y-108250119D01*
X116725836Y-108250119D01*
G37*
X116725836Y-108250119D02*
X116419650Y-108555770D01*
X116160296Y-109180366D01*
X116159706Y-109856667D01*
X116206939Y-109970979D01*
X115896097Y-110281821D01*
X115792194Y-110177736D01*
X115424785Y-110025174D01*
X115381859Y-110025137D01*
X116421701Y-107945453D01*
X116725836Y-108250119D01*
G36*
X127650000Y-99752082D02*
X127650000Y-110224934D01*
X127541642Y-110224840D01*
X127539903Y-110215596D01*
X127432605Y-110048850D01*
X127532482Y-109902674D01*
X127588713Y-109625000D01*
X127588713Y-108175000D01*
X127539903Y-107915596D01*
X127432605Y-107748850D01*
X127532482Y-107602674D01*
X127588713Y-107325000D01*
X127588713Y-105875000D01*
X127539903Y-105615596D01*
X127386595Y-105377349D01*
X127152674Y-105217518D01*
X127049872Y-105196700D01*
X126901041Y-104973959D01*
X126476041Y-104548959D01*
X126200281Y-104364702D01*
X125875000Y-104300000D01*
X122250000Y-104300000D01*
X121924719Y-104364702D01*
X121648959Y-104548959D01*
X120865400Y-105332518D01*
X120739634Y-105280296D01*
X120063333Y-105279706D01*
X119438285Y-105537970D01*
X119129881Y-105845836D01*
X118824230Y-105539650D01*
X118199634Y-105280296D01*
X117754474Y-105279908D01*
X120036562Y-100715730D01*
X120168245Y-100781672D01*
X120422048Y-100854179D01*
X120703723Y-100823776D01*
X120951376Y-100686181D01*
X121125986Y-100463075D01*
X121640909Y-99434798D01*
X121713416Y-99180995D01*
X121705281Y-99105628D01*
X121757342Y-99076703D01*
X121854182Y-98952967D01*
X121860097Y-98984404D01*
X122013405Y-99222651D01*
X122247326Y-99382482D01*
X122525000Y-99438713D01*
X123675000Y-99438713D01*
X123934404Y-99389903D01*
X123998151Y-99348883D01*
X124047326Y-99382482D01*
X124325000Y-99438713D01*
X125475000Y-99438713D01*
X125734404Y-99389903D01*
X125972651Y-99236595D01*
X126132482Y-99002674D01*
X126163400Y-98850000D01*
X126747918Y-98850000D01*
X127650000Y-99752082D01*
X127650000Y-99752082D01*
G37*
X127650000Y-99752082D02*
X127650000Y-110224934D01*
X127541642Y-110224840D01*
X127539903Y-110215596D01*
X127432605Y-110048850D01*
X127532482Y-109902674D01*
X127588713Y-109625000D01*
X127588713Y-108175000D01*
X127539903Y-107915596D01*
X127432605Y-107748850D01*
X127532482Y-107602674D01*
X127588713Y-107325000D01*
X127588713Y-105875000D01*
X127539903Y-105615596D01*
X127386595Y-105377349D01*
X127152674Y-105217518D01*
X127049872Y-105196700D01*
X126901041Y-104973959D01*
X126476041Y-104548959D01*
X126200281Y-104364702D01*
X125875000Y-104300000D01*
X122250000Y-104300000D01*
X121924719Y-104364702D01*
X121648959Y-104548959D01*
X120865400Y-105332518D01*
X120739634Y-105280296D01*
X120063333Y-105279706D01*
X119438285Y-105537970D01*
X119129881Y-105845836D01*
X118824230Y-105539650D01*
X118199634Y-105280296D01*
X117754474Y-105279908D01*
X120036562Y-100715730D01*
X120168245Y-100781672D01*
X120422048Y-100854179D01*
X120703723Y-100823776D01*
X120951376Y-100686181D01*
X121125986Y-100463075D01*
X121640909Y-99434798D01*
X121713416Y-99180995D01*
X121705281Y-99105628D01*
X121757342Y-99076703D01*
X121854182Y-98952967D01*
X121860097Y-98984404D01*
X122013405Y-99222651D01*
X122247326Y-99382482D01*
X122525000Y-99438713D01*
X123675000Y-99438713D01*
X123934404Y-99389903D01*
X123998151Y-99348883D01*
X124047326Y-99382482D01*
X124325000Y-99438713D01*
X125475000Y-99438713D01*
X125734404Y-99389903D01*
X125972651Y-99236595D01*
X126132482Y-99002674D01*
X126163400Y-98850000D01*
X126747918Y-98850000D01*
X127650000Y-99752082D01*
G36*
X123367395Y-107751150D02*
X123267518Y-107897326D01*
X123236600Y-108050000D01*
X123056370Y-108050000D01*
X123362628Y-107743742D01*
X123367395Y-107751150D01*
X123367395Y-107751150D01*
G37*
X123367395Y-107751150D02*
X123267518Y-107897326D01*
X123236600Y-108050000D01*
X123056370Y-108050000D01*
X123362628Y-107743742D01*
X123367395Y-107751150D01*
G36*
X122809314Y-106034315D02*
X122100207Y-106743423D01*
X122100294Y-106643333D01*
X122058909Y-106543173D01*
X122602082Y-106000000D01*
X122860670Y-106000000D01*
X122809314Y-106034315D01*
X122809314Y-106034315D01*
G37*
X122809314Y-106034315D02*
X122100207Y-106743423D01*
X122100294Y-106643333D01*
X122058909Y-106543173D01*
X122602082Y-106000000D01*
X122860670Y-106000000D01*
X122809314Y-106034315D01*
G36*
X133860097Y-96984404D02*
X133867978Y-96996652D01*
X133867518Y-96997326D01*
X133836600Y-97150000D01*
X132952082Y-97150000D01*
X133252082Y-96850000D01*
X133834807Y-96850000D01*
X133860097Y-96984404D01*
X133860097Y-96984404D01*
G37*
X133860097Y-96984404D02*
X133867978Y-96996652D01*
X133867518Y-96997326D01*
X133836600Y-97150000D01*
X132952082Y-97150000D01*
X133252082Y-96850000D01*
X133834807Y-96850000D01*
X133860097Y-96984404D01*
G36*
X127047918Y-97150000D02*
X126165193Y-97150000D01*
X126139903Y-97015596D01*
X126132022Y-97003348D01*
X126132482Y-97002674D01*
X126163400Y-96850000D01*
X126747918Y-96850000D01*
X127047918Y-97150000D01*
X127047918Y-97150000D01*
G37*
X127047918Y-97150000D02*
X126165193Y-97150000D01*
X126139903Y-97015596D01*
X126132022Y-97003348D01*
X126132482Y-97002674D01*
X126163400Y-96850000D01*
X126747918Y-96850000D01*
X127047918Y-97150000D01*
G36*
X136405575Y-87600005D02*
X136201960Y-87599827D01*
X135834286Y-87751747D01*
X135799089Y-87786882D01*
X135540190Y-87730720D01*
X135261765Y-87783109D01*
X135025659Y-87939694D01*
X134212486Y-88752867D01*
X134063573Y-88970807D01*
X134047503Y-89044888D01*
X133988973Y-89055901D01*
X133752867Y-89212486D01*
X132939694Y-90025659D01*
X132790781Y-90243599D01*
X132730720Y-90520470D01*
X132783109Y-90798895D01*
X132939694Y-91035001D01*
X133964999Y-92060306D01*
X134182939Y-92209219D01*
X134459810Y-92269280D01*
X134738235Y-92216891D01*
X134740509Y-92215383D01*
X135086413Y-92561287D01*
X134525000Y-92561287D01*
X134265596Y-92610097D01*
X134027349Y-92763405D01*
X133867518Y-92997326D01*
X133836600Y-93150000D01*
X132800000Y-93150000D01*
X132474719Y-93214702D01*
X132198959Y-93398959D01*
X130000000Y-95597918D01*
X127801041Y-93398959D01*
X127525281Y-93214702D01*
X127200000Y-93150000D01*
X126165193Y-93150000D01*
X126139903Y-93015596D01*
X125986595Y-92777349D01*
X125752674Y-92617518D01*
X125475000Y-92561287D01*
X124913587Y-92561287D01*
X125261723Y-92213151D01*
X125520470Y-92269280D01*
X125798895Y-92216891D01*
X126035001Y-92060306D01*
X127060306Y-91035001D01*
X127209219Y-90817061D01*
X127269280Y-90540190D01*
X127216891Y-90261765D01*
X127060306Y-90025659D01*
X126247133Y-89212486D01*
X126029193Y-89063573D01*
X125955112Y-89047503D01*
X125944099Y-88988973D01*
X125787514Y-88752867D01*
X125021314Y-87986667D01*
X128299706Y-87986667D01*
X128557970Y-88611715D01*
X129035770Y-89090350D01*
X129660366Y-89349704D01*
X130336667Y-89350294D01*
X130961715Y-89092030D01*
X131440350Y-88614230D01*
X131699704Y-87989634D01*
X131700294Y-87313333D01*
X131442030Y-86688285D01*
X130964230Y-86209650D01*
X130339634Y-85950296D01*
X129663333Y-85949706D01*
X129038285Y-86207970D01*
X128559650Y-86685770D01*
X128300296Y-87310366D01*
X128299706Y-87986667D01*
X125021314Y-87986667D01*
X124974341Y-87939694D01*
X124756401Y-87790781D01*
X124479530Y-87730720D01*
X124201105Y-87783109D01*
X124198944Y-87784542D01*
X124167194Y-87752736D01*
X123799785Y-87600174D01*
X123594430Y-87599995D01*
X124494428Y-85800000D01*
X135505572Y-85800000D01*
X136405575Y-87600005D01*
X136405575Y-87600005D01*
G37*
X136405575Y-87600005D02*
X136201960Y-87599827D01*
X135834286Y-87751747D01*
X135799089Y-87786882D01*
X135540190Y-87730720D01*
X135261765Y-87783109D01*
X135025659Y-87939694D01*
X134212486Y-88752867D01*
X134063573Y-88970807D01*
X134047503Y-89044888D01*
X133988973Y-89055901D01*
X133752867Y-89212486D01*
X132939694Y-90025659D01*
X132790781Y-90243599D01*
X132730720Y-90520470D01*
X132783109Y-90798895D01*
X132939694Y-91035001D01*
X133964999Y-92060306D01*
X134182939Y-92209219D01*
X134459810Y-92269280D01*
X134738235Y-92216891D01*
X134740509Y-92215383D01*
X135086413Y-92561287D01*
X134525000Y-92561287D01*
X134265596Y-92610097D01*
X134027349Y-92763405D01*
X133867518Y-92997326D01*
X133836600Y-93150000D01*
X132800000Y-93150000D01*
X132474719Y-93214702D01*
X132198959Y-93398959D01*
X130000000Y-95597918D01*
X127801041Y-93398959D01*
X127525281Y-93214702D01*
X127200000Y-93150000D01*
X126165193Y-93150000D01*
X126139903Y-93015596D01*
X125986595Y-92777349D01*
X125752674Y-92617518D01*
X125475000Y-92561287D01*
X124913587Y-92561287D01*
X125261723Y-92213151D01*
X125520470Y-92269280D01*
X125798895Y-92216891D01*
X126035001Y-92060306D01*
X127060306Y-91035001D01*
X127209219Y-90817061D01*
X127269280Y-90540190D01*
X127216891Y-90261765D01*
X127060306Y-90025659D01*
X126247133Y-89212486D01*
X126029193Y-89063573D01*
X125955112Y-89047503D01*
X125944099Y-88988973D01*
X125787514Y-88752867D01*
X125021314Y-87986667D01*
X128299706Y-87986667D01*
X128557970Y-88611715D01*
X129035770Y-89090350D01*
X129660366Y-89349704D01*
X130336667Y-89350294D01*
X130961715Y-89092030D01*
X131440350Y-88614230D01*
X131699704Y-87989634D01*
X131700294Y-87313333D01*
X131442030Y-86688285D01*
X130964230Y-86209650D01*
X130339634Y-85950296D01*
X129663333Y-85949706D01*
X129038285Y-86207970D01*
X128559650Y-86685770D01*
X128300296Y-87310366D01*
X128299706Y-87986667D01*
X125021314Y-87986667D01*
X124974341Y-87939694D01*
X124756401Y-87790781D01*
X124479530Y-87730720D01*
X124201105Y-87783109D01*
X124198944Y-87784542D01*
X124167194Y-87752736D01*
X123799785Y-87600174D01*
X123594430Y-87599995D01*
X124494428Y-85800000D01*
X135505572Y-85800000D01*
X136405575Y-87600005D01*
G36*
X122730720Y-89459810D02*
X122783109Y-89738235D01*
X122939694Y-89974341D01*
X123752867Y-90787514D01*
X123970807Y-90936427D01*
X124044888Y-90952497D01*
X124055901Y-91011027D01*
X124057409Y-91013301D01*
X122505813Y-92564897D01*
X122265596Y-92610097D01*
X122027349Y-92763405D01*
X121867518Y-92997326D01*
X121811287Y-93275000D01*
X121811287Y-94725000D01*
X121860097Y-94984404D01*
X121867978Y-94996652D01*
X121867518Y-94997326D01*
X121836600Y-95150000D01*
X120098244Y-95150000D01*
X119788635Y-95211585D01*
X122781449Y-89225956D01*
X122730720Y-89459810D01*
X122730720Y-89459810D01*
G37*
X122730720Y-89459810D02*
X122783109Y-89738235D01*
X122939694Y-89974341D01*
X123752867Y-90787514D01*
X123970807Y-90936427D01*
X124044888Y-90952497D01*
X124055901Y-91011027D01*
X124057409Y-91013301D01*
X122505813Y-92564897D01*
X122265596Y-92610097D01*
X122027349Y-92763405D01*
X121867518Y-92997326D01*
X121811287Y-93275000D01*
X121811287Y-94725000D01*
X121860097Y-94984404D01*
X121867978Y-94996652D01*
X121867518Y-94997326D01*
X121836600Y-95150000D01*
X120098244Y-95150000D01*
X119788635Y-95211585D01*
X122781449Y-89225956D01*
X122730720Y-89459810D01*
G36*
X140211365Y-95211585D02*
X139901756Y-95150000D01*
X138165193Y-95150000D01*
X138139903Y-95015596D01*
X138132022Y-95003348D01*
X138132482Y-95002674D01*
X138188713Y-94725000D01*
X138188713Y-93275000D01*
X138139903Y-93015596D01*
X137986595Y-92777349D01*
X137752674Y-92617518D01*
X137494532Y-92565242D01*
X135940359Y-91011069D01*
X135952497Y-90955112D01*
X136011027Y-90944099D01*
X136247133Y-90787514D01*
X137060306Y-89974341D01*
X137209219Y-89756401D01*
X137269280Y-89479530D01*
X137223387Y-89235629D01*
X140211365Y-95211585D01*
X140211365Y-95211585D01*
G37*
X140211365Y-95211585D02*
X139901756Y-95150000D01*
X138165193Y-95150000D01*
X138139903Y-95015596D01*
X138132022Y-95003348D01*
X138132482Y-95002674D01*
X138188713Y-94725000D01*
X138188713Y-93275000D01*
X138139903Y-93015596D01*
X137986595Y-92777349D01*
X137752674Y-92617518D01*
X137494532Y-92565242D01*
X135940359Y-91011069D01*
X135952497Y-90955112D01*
X136011027Y-90944099D01*
X136247133Y-90787514D01*
X137060306Y-89974341D01*
X137209219Y-89756401D01*
X137269280Y-89479530D01*
X137223387Y-89235629D01*
X140211365Y-95211585D01*
G36*
X133860097Y-94984404D02*
X133867978Y-94996652D01*
X133867518Y-94997326D01*
X133836600Y-95150000D01*
X132900000Y-95150000D01*
X132840184Y-95161898D01*
X133152082Y-94850000D01*
X133834807Y-94850000D01*
X133860097Y-94984404D01*
X133860097Y-94984404D01*
G37*
X133860097Y-94984404D02*
X133867978Y-94996652D01*
X133867518Y-94997326D01*
X133836600Y-95150000D01*
X132900000Y-95150000D01*
X132840184Y-95161898D01*
X133152082Y-94850000D01*
X133834807Y-94850000D01*
X133860097Y-94984404D01*
G36*
X127159816Y-95161898D02*
X127100000Y-95150000D01*
X126165193Y-95150000D01*
X126139903Y-95015596D01*
X126132022Y-95003348D01*
X126132482Y-95002674D01*
X126163400Y-94850000D01*
X126847918Y-94850000D01*
X127159816Y-95161898D01*
X127159816Y-95161898D01*
G37*
X127159816Y-95161898D02*
X127100000Y-95150000D01*
X126165193Y-95150000D01*
X126139903Y-95015596D01*
X126132022Y-95003348D01*
X126132482Y-95002674D01*
X126163400Y-94850000D01*
X126847918Y-94850000D01*
X127159816Y-95161898D01*
M02*
