  0
SECTION
  2
HEADER
  9
$ANGBASE
  50
0.0
  9
$ANGDIR
  70
  1
  9
$MEASUREMENT
  70
0
  0
ENDSEC
  0
SECTION
  2
TABLES
  0
TABLE
  2
LTYPE
  70
1
  0
LTYPE
  2
CONTINUOUS
  70
0
  3
Solid line
  72
65
  73
0
  40
0.0
  0
ENDTAB
  0
TABLE
  2
STYLE
  70
4
  0
STYLE
  2
KICAD
  70
0
  40
0
  41
1
  42
1
  50
0
  71
0
  3
isocp.shx
  0
STYLE
  2
KICADB
  70
0
  40
0
  41
1
  42
1
  50
0
  71
0
  3
isocp.shx
  0
STYLE
  2
KICADI
  70
0
  40
0
  41
1
  42
1
  50
15
  71
0
  3
isocp.shx
  0
STYLE
  2
KICADBI
  70
0
  40
0
  41
1
  42
1
  50
15
  71
0
  3
isocp.shx
  0
ENDTAB
  0
TABLE
  2
LAYER
  70
30
  0
LAYER
  2
BLACK
  70
0
  62
7
  6
CONTINUOUS
  0
LAYER
  2
GRAY1
  70
0
  62
251
  6
CONTINUOUS
  0
LAYER
  2
GRAY2
  70
0
  62
8
  6
CONTINUOUS
  0
LAYER
  2
GRAY3
  70
0
  62
9
  6
CONTINUOUS
  0
LAYER
  2
WHITE
  70
0
  62
7
  6
CONTINUOUS
  0
LAYER
  2
LYELLOW
  70
0
  62
51
  6
CONTINUOUS
  0
LAYER
  2
BLUE1
  70
0
  62
178
  6
CONTINUOUS
  0
LAYER
  2
GREEN1
  70
0
  62
98
  6
CONTINUOUS
  0
LAYER
  2
CYAN1
  70
0
  62
138
  6
CONTINUOUS
  0
LAYER
  2
RED1
  70
0
  62
18
  6
CONTINUOUS
  0
LAYER
  2
MAGENTA1
  70
0
  62
228
  6
CONTINUOUS
  0
LAYER
  2
BROWN1
  70
0
  62
58
  6
CONTINUOUS
  0
LAYER
  2
BLUE2
  70
0
  62
5
  6
CONTINUOUS
  0
LAYER
  2
GREEN2
  70
0
  62
3
  6
CONTINUOUS
  0
LAYER
  2
CYAN2
  70
0
  62
4
  6
CONTINUOUS
  0
LAYER
  2
RED2
  70
0
  62
1
  6
CONTINUOUS
  0
LAYER
  2
MAGENTA2
  70
0
  62
6
  6
CONTINUOUS
  0
LAYER
  2
BROWN2
  70
0
  62
54
  6
CONTINUOUS
  0
LAYER
  2
BLUE3
  70
0
  62
171
  6
CONTINUOUS
  0
LAYER
  2
GREEN3
  70
0
  62
91
  6
CONTINUOUS
  0
LAYER
  2
CYAN3
  70
0
  62
131
  6
CONTINUOUS
  0
LAYER
  2
RED3
  70
0
  62
11
  6
CONTINUOUS
  0
LAYER
  2
MAGENTA3
  70
0
  62
221
  6
CONTINUOUS
  0
LAYER
  2
YELLOW3
  70
0
  62
2
  6
CONTINUOUS
  0
LAYER
  2
BLUE4
  70
0
  62
5
  6
CONTINUOUS
  0
LAYER
  2
GREEN4
  70
0
  62
3
  6
CONTINUOUS
  0
LAYER
  2
CYAN4
  70
0
  62
4
  6
CONTINUOUS
  0
LAYER
  2
RED4
  70
0
  62
1
  6
CONTINUOUS
  0
LAYER
  2
MAGENTA4
  70
0
  62
6
  6
CONTINUOUS
  0
LAYER
  2
YELLOW4
  70
0
  62
2
  6
CONTINUOUS
  0
ENDTAB
  0
ENDSEC
  0
SECTION
  2
ENTITIES
0
LINE
8
Black
10
125.175
20
-134.225
11
124.025
21
-134.225
0
LINE
8
Black
10
124.025
20
-134.225
11
124.025
21
-132.775
0
LINE
8
Black
10
124.025
20
-132.775
11
125.175
21
-132.775
0
LINE
8
Black
10
125.175
20
-132.775
11
125.175
21
-134.225
0
LINE
8
Black
10
126.975
20
-134.225
11
125.825
21
-134.225
0
LINE
8
Black
10
125.825
20
-134.225
11
125.825
21
-132.775
0
LINE
8
Black
10
125.825
20
-132.775
11
126.975
21
-132.775
0
LINE
8
Black
10
126.975
20
-132.775
11
126.975
21
-134.225
0
LINE
8
Black
10
134.175
20
-134.225
11
133.025
21
-134.225
0
LINE
8
Black
10
133.025
20
-134.225
11
133.025
21
-132.775
0
LINE
8
Black
10
133.025
20
-132.775
11
134.175
21
-132.775
0
LINE
8
Black
10
134.175
20
-132.775
11
134.175
21
-134.225
0
LINE
8
Black
10
135.975
20
-134.225
11
134.825
21
-134.225
0
LINE
8
Black
10
134.825
20
-134.225
11
134.825
21
-132.775
0
LINE
8
Black
10
134.825
20
-132.775
11
135.975
21
-132.775
0
LINE
8
Black
10
135.975
20
-132.775
11
135.975
21
-134.225
0
LINE
8
Black
10
134.8
20
-132.15
11
134.2
21
-132.15
0
LINE
8
Black
10
134.2
20
-132.15
11
134.2
21
-131.15
0
LINE
8
Black
10
134.2
20
-131.15
11
134.8
21
-131.15
0
LINE
8
Black
10
134.8
20
-131.15
11
134.8
21
-132.15
0
LINE
8
Black
10
126.65
20
-131.85
11
125.85
21
-131.85
0
LINE
8
Black
10
125.85
20
-131.85
11
125.85
21
-130.15
0
LINE
8
Black
10
125.85
20
-130.15
11
126.65
21
-130.15
0
LINE
8
Black
10
126.65
20
-130.15
11
126.65
21
-131.85
0
LINE
8
Black
10
125.15
20
-131.85
11
124.35
21
-131.85
0
LINE
8
Black
10
124.35
20
-131.85
11
124.35
21
-130.15
0
LINE
8
Black
10
124.35
20
-130.15
11
125.15
21
-130.15
0
LINE
8
Black
10
125.15
20
-130.15
11
125.15
21
-131.85
0
LINE
8
Black
10
129.675
20
-130.225
11
128.525
21
-130.225
0
LINE
8
Black
10
128.525
20
-130.225
11
128.525
21
-128.775
0
LINE
8
Black
10
128.525
20
-128.775
11
129.675
21
-128.775
0
LINE
8
Black
10
129.675
20
-128.775
11
129.675
21
-130.225
0
LINE
8
Black
10
131.475
20
-130.225
11
130.325
21
-130.225
0
LINE
8
Black
10
130.325
20
-130.225
11
130.325
21
-128.775
0
LINE
8
Black
10
130.325
20
-128.775
11
131.475
21
-128.775
0
LINE
8
Black
10
131.475
20
-128.775
11
131.475
21
-130.225
0
LINE
8
Black
10
135.75
20
-129.85
11
135.15
21
-129.85
0
LINE
8
Black
10
135.15
20
-129.85
11
135.15
21
-128.85
0
LINE
8
Black
10
135.15
20
-128.85
11
135.75
21
-128.85
0
LINE
8
Black
10
135.75
20
-128.85
11
135.75
21
-129.85
0
LINE
8
Black
10
133.85
20
-129.85
11
133.25
21
-129.85
0
LINE
8
Black
10
133.25
20
-129.85
11
133.25
21
-128.85
0
LINE
8
Black
10
133.25
20
-128.85
11
133.85
21
-128.85
0
LINE
8
Black
10
133.85
20
-128.85
11
133.85
21
-129.85
0
LINE
8
Black
10
150.708
20
-128.276
11
149.546
21
-128.858
0
LINE
8
Black
10
149.546
20
-128.858
11
149.109
21
-127.986
0
LINE
8
Black
10
149.109
20
-127.986
11
150.272
21
-127.404
0
LINE
8
Black
10
150.272
20
-127.404
11
150.708
21
-128.276
0
LINE
8
Black
10
124.875
20
-128.85
11
123.925
21
-128.85
0
LINE
8
Black
10
123.925
20
-128.85
11
123.925
21
-128.45
0
LINE
8
Black
10
123.925
20
-128.45
11
124.875
21
-128.45
0
LINE
8
Black
10
124.875
20
-128.45
11
124.875
21
-128.85
0
LINE
8
Black
10
127.075
20
-128.85
11
126.125
21
-128.85
0
LINE
8
Black
10
126.125
20
-128.85
11
126.125
21
-128.45
0
LINE
8
Black
10
126.125
20
-128.45
11
127.075
21
-128.45
0
LINE
8
Black
10
127.075
20
-128.45
11
127.075
21
-128.85
0
LINE
8
Black
10
131.475
20
-128.225
11
130.325
21
-128.225
0
LINE
8
Black
10
130.325
20
-128.225
11
130.325
21
-126.775
0
LINE
8
Black
10
130.325
20
-126.775
11
131.475
21
-126.775
0
LINE
8
Black
10
131.475
20
-126.775
11
131.475
21
-128.225
0
LINE
8
Black
10
134.175
20
-128.225
11
133.025
21
-128.225
0
LINE
8
Black
10
133.025
20
-128.225
11
133.025
21
-126.775
0
LINE
8
Black
10
133.025
20
-126.775
11
134.175
21
-126.775
0
LINE
8
Black
10
134.175
20
-126.775
11
134.175
21
-128.225
0
LINE
8
Black
10
135.975
20
-128.225
11
134.825
21
-128.225
0
LINE
8
Black
10
134.825
20
-128.225
11
134.825
21
-126.775
0
LINE
8
Black
10
134.825
20
-126.775
11
135.975
21
-126.775
0
LINE
8
Black
10
135.975
20
-126.775
11
135.975
21
-128.225
0
LINE
8
Black
10
129.675
20
-128.225
11
128.525
21
-128.225
0
LINE
8
Black
10
128.525
20
-128.225
11
128.525
21
-126.775
0
LINE
8
Black
10
128.525
20
-126.775
11
129.675
21
-126.775
0
LINE
8
Black
10
129.675
20
-126.775
11
129.675
21
-128.225
0
LINE
8
Black
10
124.875
20
-128.2
11
123.925
21
-128.2
0
LINE
8
Black
10
123.925
20
-128.2
11
123.925
21
-127.8
0
LINE
8
Black
10
123.925
20
-127.8
11
124.875
21
-127.8
0
LINE
8
Black
10
124.875
20
-127.8
11
124.875
21
-128.2
0
LINE
8
Black
10
127.075
20
-128.2
11
126.125
21
-128.2
0
LINE
8
Black
10
126.125
20
-128.2
11
126.125
21
-127.8
0
LINE
8
Black
10
126.125
20
-127.8
11
127.075
21
-127.8
0
LINE
8
Black
10
127.075
20
-127.8
11
127.075
21
-128.2
0
LINE
8
Black
10
147.275
20
-127.339
11
146.068
21
-127.943
0
LINE
8
Black
10
146.068
20
-127.943
11
145.889
21
-127.586
0
LINE
8
Black
10
145.889
20
-127.586
11
147.096
21
-126.981
0
LINE
8
Black
10
147.096
20
-126.981
11
147.275
21
-127.339
0
LINE
8
Black
10
124.875
20
-127.55
11
123.925
21
-127.55
0
LINE
8
Black
10
123.925
20
-127.55
11
123.925
21
-127.15
0
LINE
8
Black
10
123.925
20
-127.15
11
124.875
21
-127.15
0
LINE
8
Black
10
124.875
20
-127.15
11
124.875
21
-127.55
0
LINE
8
Black
10
127.075
20
-127.55
11
126.125
21
-127.55
0
LINE
8
Black
10
126.125
20
-127.55
11
126.125
21
-127.15
0
LINE
8
Black
10
126.125
20
-127.15
11
127.075
21
-127.15
0
LINE
8
Black
10
127.075
20
-127.15
11
127.075
21
-127.55
0
LINE
8
Black
10
146.984
20
-126.758
11
145.777
21
-127.362
0
LINE
8
Black
10
145.777
20
-127.362
11
145.598
21
-127.005
0
LINE
8
Black
10
145.598
20
-127.005
11
146.805
21
-126.4
0
LINE
8
Black
10
146.805
20
-126.4
11
146.984
21
-126.758
0
LINE
8
Black
10
149.824
20
-126.398
11
148.572
21
-127.025
0
LINE
8
Black
10
148.572
20
-127.025
11
147.99
21
-125.863
0
LINE
8
Black
10
147.99
20
-125.863
11
149.242
21
-125.236
0
LINE
8
Black
10
149.242
20
-125.236
11
149.824
21
-126.398
0
LINE
8
Black
10
146.693
20
-126.177
11
145.486
21
-126.781
0
LINE
8
Black
10
145.486
20
-126.781
11
145.307
21
-126.423
0
LINE
8
Black
10
145.307
20
-126.423
11
146.514
21
-125.819
0
LINE
8
Black
10
146.514
20
-125.819
11
146.693
21
-126.177
0
LINE
8
Black
10
125.175
20
-126.225
11
124.025
21
-126.225
0
LINE
8
Black
10
124.025
20
-126.225
11
124.025
21
-124.775
0
LINE
8
Black
10
124.025
20
-124.775
11
125.175
21
-124.775
0
LINE
8
Black
10
125.175
20
-124.775
11
125.175
21
-126.225
0
LINE
8
Black
10
126.975
20
-126.225
11
125.825
21
-126.225
0
LINE
8
Black
10
125.825
20
-126.225
11
125.825
21
-124.775
0
LINE
8
Black
10
125.825
20
-124.775
11
126.975
21
-124.775
0
LINE
8
Black
10
126.975
20
-124.775
11
126.975
21
-126.225
0
LINE
8
Black
10
146.402
20
-125.595
11
145.195
21
-126.2
0
LINE
8
Black
10
145.195
20
-126.2
11
145.016
21
-125.842
0
LINE
8
Black
10
145.016
20
-125.842
11
146.223
21
-125.238
0
LINE
8
Black
10
146.223
20
-125.238
11
146.402
21
-125.595
0
LINE
8
Black
10
146.111
20
-125.014
11
144.904
21
-125.619
0
LINE
8
Black
10
144.904
20
-125.619
11
144.725
21
-125.261
0
LINE
8
Black
10
144.725
20
-125.261
11
145.932
21
-124.657
0
LINE
8
Black
10
145.932
20
-124.657
11
146.111
21
-125.014
0
LINE
8
Black
10
148.794
20
-124.342
11
147.542
21
-124.969
0
LINE
8
Black
10
147.542
20
-124.969
11
146.96
21
-123.806
0
LINE
8
Black
10
146.96
20
-123.806
11
148.212
21
-123.179
0
LINE
8
Black
10
148.212
20
-123.179
11
148.794
21
-124.342
0
LINE
8
Black
10
147.675
20
-122.218
11
146.512
21
-122.8
0
LINE
8
Black
10
146.512
20
-122.8
11
146.076
21
-121.928
0
LINE
8
Black
10
146.076
20
-121.928
11
147.238
21
-121.346
0
LINE
8
Black
10
147.238
20
-121.346
11
147.675
21
-122.218
0
LINE
8
Black
10
127.8
20
-121.65
11
126.45
21
-121.65
0
LINE
8
Black
10
126.45
20
-121.65
11
126.45
21
-121.2
0
LINE
8
Black
10
126.45
20
-121.2
11
127.8
21
-121.2
0
LINE
8
Black
10
127.8
20
-121.2
11
127.8
21
-121.65
0
LINE
8
Black
10
133.55
20
-121.65
11
132.2
21
-121.65
0
LINE
8
Black
10
132.2
20
-121.65
11
132.2
21
-121.2
0
LINE
8
Black
10
132.2
20
-121.2
11
133.55
21
-121.2
0
LINE
8
Black
10
133.55
20
-121.2
11
133.55
21
-121.65
0
LINE
8
Black
10
127.8
20
-121
11
126.45
21
-121
0
LINE
8
Black
10
126.45
20
-121
11
126.45
21
-120.55
0
LINE
8
Black
10
126.45
20
-120.55
11
127.8
21
-120.55
0
LINE
8
Black
10
127.8
20
-120.55
11
127.8
21
-121
0
LINE
8
Black
10
133.55
20
-121
11
132.2
21
-121
0
LINE
8
Black
10
132.2
20
-121
11
132.2
21
-120.55
0
LINE
8
Black
10
132.2
20
-120.55
11
133.55
21
-120.55
0
LINE
8
Black
10
133.55
20
-120.55
11
133.55
21
-121
0
LINE
8
Black
10
137.725
20
-120.975
11
136.275
21
-120.975
0
LINE
8
Black
10
136.275
20
-120.975
11
136.275
21
-119.825
0
LINE
8
Black
10
136.275
20
-119.825
11
137.725
21
-119.825
0
LINE
8
Black
10
137.725
20
-119.825
11
137.725
21
-120.975
0
LINE
8
Black
10
135.725
20
-120.975
11
134.275
21
-120.975
0
LINE
8
Black
10
134.275
20
-120.975
11
134.275
21
-119.825
0
LINE
8
Black
10
134.275
20
-119.825
11
135.725
21
-119.825
0
LINE
8
Black
10
135.725
20
-119.825
11
135.725
21
-120.975
0
LINE
8
Black
10
116.575
20
-120.625
11
115.425
21
-120.625
0
LINE
8
Black
10
115.425
20
-120.625
11
115.425
21
-119.175
0
LINE
8
Black
10
115.425
20
-119.175
11
116.575
21
-119.175
0
LINE
8
Black
10
116.575
20
-119.175
11
116.575
21
-120.625
0
LINE
8
Black
10
114.775
20
-120.625
11
113.625
21
-120.625
0
LINE
8
Black
10
113.625
20
-120.625
11
113.625
21
-119.175
0
LINE
8
Black
10
113.625
20
-119.175
11
114.775
21
-119.175
0
LINE
8
Black
10
114.775
20
-119.175
11
114.775
21
-120.625
0
LINE
8
Black
10
133.55
20
-120.35
11
132.2
21
-120.35
0
LINE
8
Black
10
132.2
20
-120.35
11
132.2
21
-119.9
0
LINE
8
Black
10
132.2
20
-119.9
11
133.55
21
-119.9
0
LINE
8
Black
10
133.55
20
-119.9
11
133.55
21
-120.35
0
LINE
8
Black
10
127.8
20
-120.35
11
126.45
21
-120.35
0
LINE
8
Black
10
126.45
20
-120.35
11
126.45
21
-119.9
0
LINE
8
Black
10
126.45
20
-119.9
11
127.8
21
-119.9
0
LINE
8
Black
10
127.8
20
-119.9
11
127.8
21
-120.35
0
LINE
8
Black
10
133.55
20
-119.7
11
132.2
21
-119.7
0
LINE
8
Black
10
132.2
20
-119.7
11
132.2
21
-119.25
0
LINE
8
Black
10
132.2
20
-119.25
11
133.55
21
-119.25
0
LINE
8
Black
10
133.55
20
-119.25
11
133.55
21
-119.7
0
LINE
8
Black
10
127.8
20
-119.7
11
126.45
21
-119.7
0
LINE
8
Black
10
126.45
20
-119.7
11
126.45
21
-119.25
0
LINE
8
Black
10
126.45
20
-119.25
11
127.8
21
-119.25
0
LINE
8
Black
10
127.8
20
-119.25
11
127.8
21
-119.7
0
LINE
8
Black
10
135.725
20
-119.175
11
134.275
21
-119.175
0
LINE
8
Black
10
134.275
20
-119.175
11
134.275
21
-118.025
0
LINE
8
Black
10
134.275
20
-118.025
11
135.725
21
-118.025
0
LINE
8
Black
10
135.725
20
-118.025
11
135.725
21
-119.175
0
LINE
8
Black
10
137.725
20
-119.175
11
136.275
21
-119.175
0
LINE
8
Black
10
136.275
20
-119.175
11
136.275
21
-118.025
0
LINE
8
Black
10
136.275
20
-118.025
11
137.725
21
-118.025
0
LINE
8
Black
10
137.725
20
-118.025
11
137.725
21
-119.175
0
LINE
8
Black
10
133.55
20
-119.05
11
132.2
21
-119.05
0
LINE
8
Black
10
132.2
20
-119.05
11
132.2
21
-118.6
0
LINE
8
Black
10
132.2
20
-118.6
11
133.55
21
-118.6
0
LINE
8
Black
10
133.55
20
-118.6
11
133.55
21
-119.05
0
LINE
8
Black
10
127.8
20
-119.05
11
126.45
21
-119.05
0
LINE
8
Black
10
126.45
20
-119.05
11
126.45
21
-118.6
0
LINE
8
Black
10
126.45
20
-118.6
11
127.8
21
-118.6
0
LINE
8
Black
10
127.8
20
-118.6
11
127.8
21
-119.05
0
LINE
8
Black
10
125.225
20
-118.475
11
123.775
21
-118.475
0
LINE
8
Black
10
123.775
20
-118.475
11
123.775
21
-117.325
0
LINE
8
Black
10
123.775
20
-117.325
11
125.225
21
-117.325
0
LINE
8
Black
10
125.225
20
-117.325
11
125.225
21
-118.475
0
LINE
8
Black
10
133.55
20
-118.4
11
132.2
21
-118.4
0
LINE
8
Black
10
132.2
20
-118.4
11
132.2
21
-117.95
0
LINE
8
Black
10
132.2
20
-117.95
11
133.55
21
-117.95
0
LINE
8
Black
10
133.55
20
-117.95
11
133.55
21
-118.4
0
LINE
8
Black
10
127.8
20
-118.4
11
126.45
21
-118.4
0
LINE
8
Black
10
126.45
20
-118.4
11
126.45
21
-117.95
0
LINE
8
Black
10
126.45
20
-117.95
11
127.8
21
-117.95
0
LINE
8
Black
10
127.8
20
-117.95
11
127.8
21
-118.4
0
LINE
8
Black
10
127.8
20
-117.75
11
126.45
21
-117.75
0
LINE
8
Black
10
126.45
20
-117.75
11
126.45
21
-117.3
0
LINE
8
Black
10
126.45
20
-117.3
11
127.8
21
-117.3
0
LINE
8
Black
10
127.8
20
-117.3
11
127.8
21
-117.75
0
LINE
8
Black
10
133.55
20
-117.75
11
132.2
21
-117.75
0
LINE
8
Black
10
132.2
20
-117.75
11
132.2
21
-117.3
0
LINE
8
Black
10
132.2
20
-117.3
11
133.55
21
-117.3
0
LINE
8
Black
10
133.55
20
-117.3
11
133.55
21
-117.75
0
LINE
8
Black
10
127.8
20
-117.1
11
126.45
21
-117.1
0
LINE
8
Black
10
126.45
20
-117.1
11
126.45
21
-116.65
0
LINE
8
Black
10
126.45
20
-116.65
11
127.8
21
-116.65
0
LINE
8
Black
10
127.8
20
-116.65
11
127.8
21
-117.1
0
LINE
8
Black
10
133.55
20
-117.1
11
132.2
21
-117.1
0
LINE
8
Black
10
132.2
20
-117.1
11
132.2
21
-116.65
0
LINE
8
Black
10
132.2
20
-116.65
11
133.55
21
-116.65
0
LINE
8
Black
10
133.55
20
-116.65
11
133.55
21
-117.1
0
LINE
8
Black
10
125.225
20
-116.675
11
123.775
21
-116.675
0
LINE
8
Black
10
123.775
20
-116.675
11
123.775
21
-115.525
0
LINE
8
Black
10
123.775
20
-115.525
11
125.225
21
-115.525
0
LINE
8
Black
10
125.225
20
-115.525
11
125.225
21
-116.675
0
LINE
8
Black
10
127.8
20
-116.45
11
126.45
21
-116.45
0
LINE
8
Black
10
126.45
20
-116.45
11
126.45
21
-116
0
LINE
8
Black
10
126.45
20
-116
11
127.8
21
-116
0
LINE
8
Black
10
127.8
20
-116
11
127.8
21
-116.45
0
LINE
8
Black
10
133.55
20
-116.45
11
132.2
21
-116.45
0
LINE
8
Black
10
132.2
20
-116.45
11
132.2
21
-116
0
LINE
8
Black
10
132.2
20
-116
11
133.55
21
-116
0
LINE
8
Black
10
133.55
20
-116
11
133.55
21
-116.45
0
LINE
8
Black
10
133.55
20
-115.8
11
132.2
21
-115.8
0
LINE
8
Black
10
132.2
20
-115.8
11
132.2
21
-115.35
0
LINE
8
Black
10
132.2
20
-115.35
11
133.55
21
-115.35
0
LINE
8
Black
10
133.55
20
-115.35
11
133.55
21
-115.8
0
LINE
8
Black
10
127.8
20
-115.8
11
126.45
21
-115.8
0
LINE
8
Black
10
126.45
20
-115.8
11
126.45
21
-115.35
0
LINE
8
Black
10
126.45
20
-115.35
11
127.8
21
-115.35
0
LINE
8
Black
10
127.8
20
-115.35
11
127.8
21
-115.8
0
LINE
8
Black
10
147.309
20
-113.994
11
146.012
21
-114.644
0
LINE
8
Black
10
146.012
20
-114.644
11
145.497
21
-113.615
0
LINE
8
Black
10
145.497
20
-113.615
11
146.794
21
-112.966
0
LINE
8
Black
10
146.794
20
-112.966
11
147.309
21
-113.994
0
LINE
8
Black
10
114.503
20
-113.615
11
113.988
21
-114.644
0
LINE
8
Black
10
113.988
20
-114.644
11
112.691
21
-113.994
0
LINE
8
Black
10
112.691
20
-113.994
11
113.206
21
-112.966
0
LINE
8
Black
10
113.206
20
-112.966
11
114.503
21
-113.615
0
LINE
8
Black
10
125.075
20
-114.225
11
123.925
21
-114.225
0
LINE
8
Black
10
123.925
20
-114.225
11
123.925
21
-112.775
0
LINE
8
Black
10
123.925
20
-112.775
11
125.075
21
-112.775
0
LINE
8
Black
10
125.075
20
-112.775
11
125.075
21
-114.225
0
LINE
8
Black
10
126.875
20
-114.225
11
125.725
21
-114.225
0
LINE
8
Black
10
125.725
20
-114.225
11
125.725
21
-112.775
0
LINE
8
Black
10
125.725
20
-112.775
11
126.875
21
-112.775
0
LINE
8
Black
10
126.875
20
-112.775
11
126.875
21
-114.225
0
LINE
8
Black
10
142.175
20
-113.225
11
141.025
21
-113.225
0
LINE
8
Black
10
141.025
20
-113.225
11
141.025
21
-111.775
0
LINE
8
Black
10
141.025
20
-111.775
11
142.175
21
-111.775
0
LINE
8
Black
10
142.175
20
-111.775
11
142.175
21
-113.225
0
LINE
8
Black
10
143.975
20
-113.225
11
142.825
21
-113.225
0
LINE
8
Black
10
142.825
20
-113.225
11
142.825
21
-111.775
0
LINE
8
Black
10
142.825
20
-111.775
11
143.975
21
-111.775
0
LINE
8
Black
10
143.975
20
-111.775
11
143.975
21
-113.225
0
LINE
8
Black
10
115.309
20
-112.006
11
114.794
21
-113.034
0
LINE
8
Black
10
114.794
20
-113.034
11
113.497
21
-112.385
0
LINE
8
Black
10
113.497
20
-112.385
11
114.012
21
-111.356
0
LINE
8
Black
10
114.012
20
-111.356
11
115.309
21
-112.006
0
LINE
8
Black
10
146.503
20
-112.385
11
145.206
21
-113.034
0
LINE
8
Black
10
145.206
20
-113.034
11
144.691
21
-112.006
0
LINE
8
Black
10
144.691
20
-112.006
11
145.988
21
-111.356
0
LINE
8
Black
10
145.988
20
-111.356
11
146.503
21
-112.385
0
LINE
8
Black
10
126.875
20
-111.925
11
125.725
21
-111.925
0
LINE
8
Black
10
125.725
20
-111.925
11
125.725
21
-110.475
0
LINE
8
Black
10
125.725
20
-110.475
11
126.875
21
-110.475
0
LINE
8
Black
10
126.875
20
-110.475
11
126.875
21
-111.925
0
LINE
8
Black
10
125.075
20
-111.925
11
123.925
21
-111.925
0
LINE
8
Black
10
123.925
20
-111.925
11
123.925
21
-110.475
0
LINE
8
Black
10
123.925
20
-110.475
11
125.075
21
-110.475
0
LINE
8
Black
10
125.075
20
-110.475
11
125.075
21
-111.925
0
LINE
8
Black
10
126.875
20
-109.525
11
125.725
21
-109.525
0
LINE
8
Black
10
125.725
20
-109.525
11
125.725
21
-108.075
0
LINE
8
Black
10
125.725
20
-108.075
11
126.875
21
-108.075
0
LINE
8
Black
10
126.875
20
-108.075
11
126.875
21
-109.525
0
LINE
8
Black
10
125.075
20
-109.525
11
123.925
21
-109.525
0
LINE
8
Black
10
123.925
20
-109.525
11
123.925
21
-108.075
0
LINE
8
Black
10
123.925
20
-108.075
11
125.075
21
-108.075
0
LINE
8
Black
10
125.075
20
-108.075
11
125.075
21
-109.525
0
LINE
8
Black
10
125.075
20
-107.125
11
123.925
21
-107.125
0
LINE
8
Black
10
123.925
20
-107.125
11
123.925
21
-105.675
0
LINE
8
Black
10
123.925
20
-105.675
11
125.075
21
-105.675
0
LINE
8
Black
10
125.075
20
-105.675
11
125.075
21
-107.125
0
LINE
8
Black
10
126.875
20
-107.125
11
125.725
21
-107.125
0
LINE
8
Black
10
125.725
20
-107.125
11
125.725
21
-105.675
0
LINE
8
Black
10
125.725
20
-105.675
11
126.875
21
-105.675
0
LINE
8
Black
10
126.875
20
-105.675
11
126.875
21
-107.125
0
LINE
8
Black
10
121.003
20
-99.1152
11
120.488
21
-100.144
0
LINE
8
Black
10
120.488
20
-100.144
11
119.191
21
-99.4943
0
LINE
8
Black
10
119.191
20
-99.4943
11
119.706
21
-98.466
0
LINE
8
Black
10
119.706
20
-98.466
11
121.003
21
-99.1152
0
LINE
8
Black
10
140.809
20
-99.4943
11
139.512
21
-100.144
0
LINE
8
Black
10
139.512
20
-100.144
11
138.997
21
-99.1152
0
LINE
8
Black
10
138.997
20
-99.1152
11
140.294
21
-98.466
0
LINE
8
Black
10
140.294
20
-98.466
11
140.809
21
-99.4943
0
LINE
8
Black
10
142.809
20
-98.9943
11
141.512
21
-99.6435
0
LINE
8
Black
10
141.512
20
-99.6435
11
140.997
21
-98.6152
0
LINE
8
Black
10
140.997
20
-98.6152
11
142.294
21
-97.966
0
LINE
8
Black
10
142.294
20
-97.966
11
142.809
21
-98.9943
0
LINE
8
Black
10
119.003
20
-98.6152
11
118.488
21
-99.6435
0
LINE
8
Black
10
118.488
20
-99.6435
11
117.191
21
-98.9943
0
LINE
8
Black
10
117.191
20
-98.9943
11
117.706
21
-97.966
0
LINE
8
Black
10
117.706
20
-97.966
11
119.003
21
-98.6152
0
LINE
8
Black
10
135.675
20
-98.725
11
134.525
21
-98.725
0
LINE
8
Black
10
134.525
20
-98.725
11
134.525
21
-97.275
0
LINE
8
Black
10
134.525
20
-97.275
11
135.675
21
-97.275
0
LINE
8
Black
10
135.675
20
-97.275
11
135.675
21
-98.725
0
LINE
8
Black
10
125.475
20
-98.725
11
124.325
21
-98.725
0
LINE
8
Black
10
124.325
20
-98.725
11
124.325
21
-97.275
0
LINE
8
Black
10
124.325
20
-97.275
11
125.475
21
-97.275
0
LINE
8
Black
10
125.475
20
-97.275
11
125.475
21
-98.725
0
LINE
8
Black
10
123.675
20
-98.725
11
122.525
21
-98.725
0
LINE
8
Black
10
122.525
20
-98.725
11
122.525
21
-97.275
0
LINE
8
Black
10
122.525
20
-97.275
11
123.675
21
-97.275
0
LINE
8
Black
10
123.675
20
-97.275
11
123.675
21
-98.725
0
LINE
8
Black
10
137.475
20
-98.725
11
136.325
21
-98.725
0
LINE
8
Black
10
136.325
20
-98.725
11
136.325
21
-97.275
0
LINE
8
Black
10
136.325
20
-97.275
11
137.475
21
-97.275
0
LINE
8
Black
10
137.475
20
-97.275
11
137.475
21
-98.725
0
LINE
8
Black
10
140.003
20
-97.8848
11
138.706
21
-98.534
0
LINE
8
Black
10
138.706
20
-98.534
11
138.191
21
-97.5057
0
LINE
8
Black
10
138.191
20
-97.5057
11
139.488
21
-96.8565
0
LINE
8
Black
10
139.488
20
-96.8565
11
140.003
21
-97.8848
0
LINE
8
Black
10
121.809
20
-97.5057
11
121.294
21
-98.534
0
LINE
8
Black
10
121.294
20
-98.534
11
119.997
21
-97.8848
0
LINE
8
Black
10
119.997
20
-97.8848
11
120.512
21
-96.8565
0
LINE
8
Black
10
120.512
20
-96.8565
11
121.809
21
-97.5057
0
LINE
8
Black
10
119.809
20
-97.0057
11
119.294
21
-98.034
0
LINE
8
Black
10
119.294
20
-98.034
11
117.997
21
-97.3848
0
LINE
8
Black
10
117.997
20
-97.3848
11
118.512
21
-96.3565
0
LINE
8
Black
10
118.512
20
-96.3565
11
119.809
21
-97.0057
0
LINE
8
Black
10
142.003
20
-97.3848
11
140.706
21
-98.034
0
LINE
8
Black
10
140.706
20
-98.034
11
140.191
21
-97.0057
0
LINE
8
Black
10
140.191
20
-97.0057
11
141.488
21
-96.3565
0
LINE
8
Black
10
141.488
20
-96.3565
11
142.003
21
-97.3848
0
LINE
8
Black
10
137.475
20
-96.725
11
136.325
21
-96.725
0
LINE
8
Black
10
136.325
20
-96.725
11
136.325
21
-95.275
0
LINE
8
Black
10
136.325
20
-95.275
11
137.475
21
-95.275
0
LINE
8
Black
10
137.475
20
-95.275
11
137.475
21
-96.725
0
LINE
8
Black
10
135.675
20
-96.725
11
134.525
21
-96.725
0
LINE
8
Black
10
134.525
20
-96.725
11
134.525
21
-95.275
0
LINE
8
Black
10
134.525
20
-95.275
11
135.675
21
-95.275
0
LINE
8
Black
10
135.675
20
-95.275
11
135.675
21
-96.725
0
LINE
8
Black
10
123.675
20
-96.725
11
122.525
21
-96.725
0
LINE
8
Black
10
122.525
20
-96.725
11
122.525
21
-95.275
0
LINE
8
Black
10
122.525
20
-95.275
11
123.675
21
-95.275
0
LINE
8
Black
10
123.675
20
-95.275
11
123.675
21
-96.725
0
LINE
8
Black
10
125.475
20
-96.725
11
124.325
21
-96.725
0
LINE
8
Black
10
124.325
20
-96.725
11
124.325
21
-95.275
0
LINE
8
Black
10
124.325
20
-95.275
11
125.475
21
-95.275
0
LINE
8
Black
10
125.475
20
-95.275
11
125.475
21
-96.725
0
LINE
8
Black
10
135.675
20
-94.725
11
134.525
21
-94.725
0
LINE
8
Black
10
134.525
20
-94.725
11
134.525
21
-93.275
0
LINE
8
Black
10
134.525
20
-93.275
11
135.675
21
-93.275
0
LINE
8
Black
10
135.675
20
-93.275
11
135.675
21
-94.725
0
LINE
8
Black
10
137.475
20
-94.725
11
136.325
21
-94.725
0
LINE
8
Black
10
136.325
20
-94.725
11
136.325
21
-93.275
0
LINE
8
Black
10
136.325
20
-93.275
11
137.475
21
-93.275
0
LINE
8
Black
10
137.475
20
-93.275
11
137.475
21
-94.725
0
LINE
8
Black
10
125.475
20
-94.725
11
124.325
21
-94.725
0
LINE
8
Black
10
124.325
20
-94.725
11
124.325
21
-93.275
0
LINE
8
Black
10
124.325
20
-93.275
11
125.475
21
-93.275
0
LINE
8
Black
10
125.475
20
-93.275
11
125.475
21
-94.725
0
LINE
8
Black
10
123.675
20
-94.725
11
122.525
21
-94.725
0
LINE
8
Black
10
122.525
20
-94.725
11
122.525
21
-93.275
0
LINE
8
Black
10
122.525
20
-93.275
11
123.675
21
-93.275
0
LINE
8
Black
10
123.675
20
-93.275
11
123.675
21
-94.725
0
LINE
8
Black
10
126.556
20
-90.5303
11
125.53
21
-91.5556
0
LINE
8
Black
10
125.53
20
-91.5556
11
124.717
21
-90.7425
0
LINE
8
Black
10
124.717
20
-90.7425
11
125.742
21
-89.7172
0
LINE
8
Black
10
125.742
20
-89.7172
11
126.556
21
-90.5303
0
LINE
8
Black
10
135.283
20
-90.7425
11
134.47
21
-91.5556
0
LINE
8
Black
10
134.47
20
-91.5556
11
133.444
21
-90.5303
0
LINE
8
Black
10
133.444
20
-90.5303
11
134.258
21
-89.7172
0
LINE
8
Black
10
134.258
20
-89.7172
11
135.283
21
-90.7425
0
LINE
8
Black
10
136.556
20
-89.4697
11
135.742
21
-90.2828
0
LINE
8
Black
10
135.742
20
-90.2828
11
134.717
21
-89.2575
0
LINE
8
Black
10
134.717
20
-89.2575
11
135.53
21
-88.4444
0
LINE
8
Black
10
135.53
20
-88.4444
11
136.556
21
-89.4697
0
LINE
8
Black
10
125.283
20
-89.2575
11
124.258
21
-90.2828
0
LINE
8
Black
10
124.258
20
-90.2828
11
123.444
21
-89.4697
0
LINE
8
Black
10
123.444
20
-89.4697
11
124.47
21
-88.4444
0
LINE
8
Black
10
124.47
20
-88.4444
11
125.283
21
-89.2575
  0
ENDSEC
  0
EOF
