M48
;DRILL file {KiCad 4.0.2+e4-6225~38~ubuntu14.04.1-stable} date Wed 02 Nov 2016 10:45:15 GMT
;FORMAT={-:-/ absolute / metric / decimal}
FMAT,2
METRIC,TZ
T1C0.300
T2C0.600
T3C0.650
T4C0.800
T5C1.000
T6C1.500
T7C1.000
%
G90
G05
M71
T1
X115.225Y-111.025
X117.Y-119.9
X119.2Y-98.805
X123.3Y-113.5
X123.3Y-116.1
X123.35Y-119.38
X123.6Y-88.6
X124.425Y-120.775
X124.6Y-132.4
X125.275Y-120.125
X125.5Y-114.875
X126.4Y-126.6
X127.725Y-111.225
X130.Y-120.6
X130.Y-122.1
X130.Y-124.8
X131.9Y-127.5
X132.3Y-112.5
X135.4Y-128.5
X135.4Y-132.4
X136.Y-120.4
X136.4Y-88.6
X139.7Y-120.6
X140.1Y-111.7
X141.Y-99.305
X142.Y-120.6
X143.7Y-125.8
X143.8Y-125.3
X144.2Y-125.6
X145.2Y-114.1
T4
X121.Y-122.5
X121.Y-124.5
X121.Y-126.5
T5
X112.75Y-122.25
X112.75Y-128.75
X117.25Y-122.25
X117.25Y-128.75
X118.26Y-107.2
X118.26Y-109.74
X118.26Y-112.28
X118.26Y-114.82
X120.8Y-107.2
X120.8Y-109.74
X120.8Y-112.28
X120.8Y-114.82
X130.Y-87.65
X130.Y-132.35
T6
X121.Y-120.4
X121.Y-128.6
T7
X137.489Y-110.46
X138.505Y-115.54
X139.521Y-110.46
T2
X146.21Y-121.526G85X146.835Y-121.212
G05
X149.948Y-128.992G85X150.574Y-128.679
G05
T3
X144.624Y-124.501G85X144.803Y-124.411
G05
X146.616Y-128.48G85X146.795Y-128.39
G05
T0
M30
