  0
SECTION
  2
HEADER
  9
$ANGBASE
  50
0.0
  9
$ANGDIR
  70
  1
  9
$MEASUREMENT
  70
0
  0
ENDSEC
  0
SECTION
  2
TABLES
  0
TABLE
  2
LTYPE
  70
1
  0
LTYPE
  2
CONTINUOUS
  70
0
  3
Solid line
  72
65
  73
0
  40
0.0
  0
ENDTAB
  0
TABLE
  2
STYLE
  70
4
  0
STYLE
  2
KICAD
  70
0
  40
0
  41
1
  42
1
  50
0
  71
0
  3
isocp.shx
  0
STYLE
  2
KICADB
  70
0
  40
0
  41
1
  42
1
  50
0
  71
0
  3
isocp.shx
  0
STYLE
  2
KICADI
  70
0
  40
0
  41
1
  42
1
  50
15
  71
0
  3
isocp.shx
  0
STYLE
  2
KICADBI
  70
0
  40
0
  41
1
  42
1
  50
15
  71
0
  3
isocp.shx
  0
ENDTAB
  0
TABLE
  2
LAYER
  70
30
  0
LAYER
  2
BLACK
  70
0
  62
7
  6
CONTINUOUS
  0
LAYER
  2
GRAY1
  70
0
  62
251
  6
CONTINUOUS
  0
LAYER
  2
GRAY2
  70
0
  62
8
  6
CONTINUOUS
  0
LAYER
  2
GRAY3
  70
0
  62
9
  6
CONTINUOUS
  0
LAYER
  2
WHITE
  70
0
  62
7
  6
CONTINUOUS
  0
LAYER
  2
LYELLOW
  70
0
  62
51
  6
CONTINUOUS
  0
LAYER
  2
BLUE1
  70
0
  62
178
  6
CONTINUOUS
  0
LAYER
  2
GREEN1
  70
0
  62
98
  6
CONTINUOUS
  0
LAYER
  2
CYAN1
  70
0
  62
138
  6
CONTINUOUS
  0
LAYER
  2
RED1
  70
0
  62
18
  6
CONTINUOUS
  0
LAYER
  2
MAGENTA1
  70
0
  62
228
  6
CONTINUOUS
  0
LAYER
  2
BROWN1
  70
0
  62
58
  6
CONTINUOUS
  0
LAYER
  2
BLUE2
  70
0
  62
5
  6
CONTINUOUS
  0
LAYER
  2
GREEN2
  70
0
  62
3
  6
CONTINUOUS
  0
LAYER
  2
CYAN2
  70
0
  62
4
  6
CONTINUOUS
  0
LAYER
  2
RED2
  70
0
  62
1
  6
CONTINUOUS
  0
LAYER
  2
MAGENTA2
  70
0
  62
6
  6
CONTINUOUS
  0
LAYER
  2
BROWN2
  70
0
  62
54
  6
CONTINUOUS
  0
LAYER
  2
BLUE3
  70
0
  62
171
  6
CONTINUOUS
  0
LAYER
  2
GREEN3
  70
0
  62
91
  6
CONTINUOUS
  0
LAYER
  2
CYAN3
  70
0
  62
131
  6
CONTINUOUS
  0
LAYER
  2
RED3
  70
0
  62
11
  6
CONTINUOUS
  0
LAYER
  2
MAGENTA3
  70
0
  62
221
  6
CONTINUOUS
  0
LAYER
  2
YELLOW3
  70
0
  62
2
  6
CONTINUOUS
  0
LAYER
  2
BLUE4
  70
0
  62
5
  6
CONTINUOUS
  0
LAYER
  2
GREEN4
  70
0
  62
3
  6
CONTINUOUS
  0
LAYER
  2
CYAN4
  70
0
  62
4
  6
CONTINUOUS
  0
LAYER
  2
RED4
  70
0
  62
1
  6
CONTINUOUS
  0
LAYER
  2
MAGENTA4
  70
0
  62
6
  6
CONTINUOUS
  0
LAYER
  2
YELLOW4
  70
0
  62
2
  6
CONTINUOUS
  0
ENDTAB
  0
ENDSEC
  0
SECTION
  2
ENTITIES
0
LINE
8
Black
10
136.003
20
-84.9005
11
136.006
21
-84.9002
0
LINE
8
Black
10
136.006
20
-84.9002
11
136.02
21
-84.9035
0
LINE
8
Black
10
136.02
20
-84.9035
11
136.034
21
-84.906
0
LINE
8
Black
10
136.034
20
-84.906
11
136.037
21
-84.9075
0
LINE
8
Black
10
136.037
20
-84.9075
11
136.04
21
-84.9082
0
LINE
8
Black
10
136.04
20
-84.9082
11
136.052
21
-84.9162
0
LINE
8
Black
10
136.052
20
-84.9162
11
136.064
21
-84.9234
0
LINE
8
Black
10
136.064
20
-84.9234
11
136.066
21
-84.9257
0
LINE
8
Black
10
136.066
20
-84.9257
11
136.069
21
-84.9274
0
LINE
8
Black
10
136.069
20
-84.9274
11
136.077
21
-84.939
0
LINE
8
Black
10
136.077
20
-84.939
11
136.087
21
-84.95
0
LINE
8
Black
10
136.087
20
-84.95
11
136.088
21
-84.9528
0
LINE
8
Black
10
136.088
20
-84.9528
11
136.089
21
-84.9553
0
LINE
8
Black
10
136.089
20
-84.9553
11
143.589
21
-99.9553
0
LINE
8
Black
10
143.589
20
-99.9553
11
143.594
21
-99.9691
0
LINE
8
Black
10
143.594
20
-99.9691
11
143.598
21
-99.9826
0
LINE
8
Black
10
143.598
20
-99.9826
11
143.598
21
-99.9857
0
LINE
8
Black
10
143.598
20
-99.9857
11
143.599
21
-99.9886
0
LINE
8
Black
10
143.599
20
-99.9886
11
143.598
21
-100.003
0
LINE
8
Black
10
143.598
20
-100.003
11
143.598
21
-100.017
0
LINE
8
Black
10
143.598
20
-100.017
11
143.597
21
-100.02
0
LINE
8
Black
10
143.597
20
-100.02
11
143.597
21
-100.023
0
LINE
8
Black
10
143.597
20
-100.023
11
143.592
21
-100.036
0
LINE
8
Black
10
143.592
20
-100.036
11
143.587
21
-100.05
0
LINE
8
Black
10
143.587
20
-100.05
11
143.585
21
-100.052
0
LINE
8
Black
10
143.585
20
-100.052
11
143.583
21
-100.055
0
LINE
8
Black
10
143.583
20
-100.055
11
143.574
21
-100.066
0
LINE
8
Black
10
143.574
20
-100.066
11
143.564
21
-100.077
0
LINE
8
Black
10
143.564
20
-100.077
11
143.562
21
-100.078
0
LINE
8
Black
10
143.562
20
-100.078
11
143.56
21
-100.08
0
LINE
8
Black
10
143.56
20
-100.08
11
143.547
21
-100.087
0
LINE
8
Black
10
143.547
20
-100.087
11
143.534
21
-100.094
0
LINE
8
Black
10
143.534
20
-100.094
11
143.531
21
-100.094
0
LINE
8
Black
10
143.531
20
-100.094
11
143.529
21
-100.096
0
LINE
8
Black
10
143.529
20
-100.096
11
143.514
21
-100.097
0
LINE
8
Black
10
143.514
20
-100.097
11
143.5
21
-100.1
0
LINE
8
Black
10
143.5
20
-100.1
11
140.662
21
-100.1
0
LINE
8
Black
10
140.662
20
-100.1
11
148.089
21
-114.955
0
LINE
8
Black
10
148.089
20
-114.955
11
148.094
21
-114.969
0
LINE
8
Black
10
148.094
20
-114.969
11
148.098
21
-114.983
0
LINE
8
Black
10
148.098
20
-114.983
11
148.098
21
-114.986
0
LINE
8
Black
10
148.098
20
-114.986
11
148.099
21
-114.989
0
LINE
8
Black
10
148.099
20
-114.989
11
148.098
21
-115.003
0
LINE
8
Black
10
148.098
20
-115.003
11
148.098
21
-115.017
0
LINE
8
Black
10
148.098
20
-115.017
11
148.097
21
-115.02
0
LINE
8
Black
10
148.097
20
-115.02
11
148.097
21
-115.023
0
LINE
8
Black
10
148.097
20
-115.023
11
148.092
21
-115.036
0
LINE
8
Black
10
148.092
20
-115.036
11
148.087
21
-115.05
0
LINE
8
Black
10
148.087
20
-115.05
11
148.085
21
-115.052
0
LINE
8
Black
10
148.085
20
-115.052
11
148.083
21
-115.055
0
LINE
8
Black
10
148.083
20
-115.055
11
148.074
21
-115.066
0
LINE
8
Black
10
148.074
20
-115.066
11
148.064
21
-115.077
0
LINE
8
Black
10
148.064
20
-115.077
11
148.062
21
-115.078
0
LINE
8
Black
10
148.062
20
-115.078
11
148.06
21
-115.08
0
LINE
8
Black
10
148.06
20
-115.08
11
148.047
21
-115.087
0
LINE
8
Black
10
148.047
20
-115.087
11
148.034
21
-115.094
0
LINE
8
Black
10
148.034
20
-115.094
11
148.031
21
-115.094
0
LINE
8
Black
10
148.031
20
-115.094
11
148.029
21
-115.096
0
LINE
8
Black
10
148.029
20
-115.096
11
148.014
21
-115.097
0
LINE
8
Black
10
148.014
20
-115.097
11
148
21
-115.1
0
LINE
8
Black
10
148
20
-115.1
11
145.162
21
-115.1
0
LINE
8
Black
10
145.162
20
-115.1
11
152.589
21
-129.955
0
LINE
8
Black
10
152.589
20
-129.955
11
152.594
21
-129.969
0
LINE
8
Black
10
152.594
20
-129.969
11
152.598
21
-129.983
0
LINE
8
Black
10
152.598
20
-129.983
11
152.598
21
-129.986
0
LINE
8
Black
10
152.598
20
-129.986
11
152.599
21
-129.989
0
LINE
8
Black
10
152.599
20
-129.989
11
152.598
21
-130.003
0
LINE
8
Black
10
152.598
20
-130.003
11
152.598
21
-130.017
0
LINE
8
Black
10
152.598
20
-130.017
11
152.597
21
-130.02
0
LINE
8
Black
10
152.597
20
-130.02
11
152.597
21
-130.023
0
LINE
8
Black
10
152.597
20
-130.023
11
152.592
21
-130.036
0
LINE
8
Black
10
152.592
20
-130.036
11
152.587
21
-130.05
0
LINE
8
Black
10
152.587
20
-130.05
11
152.585
21
-130.052
0
LINE
8
Black
10
152.585
20
-130.052
11
152.583
21
-130.055
0
LINE
8
Black
10
152.583
20
-130.055
11
152.574
21
-130.066
0
LINE
8
Black
10
152.574
20
-130.066
11
152.564
21
-130.077
0
LINE
8
Black
10
152.564
20
-130.077
11
152.562
21
-130.078
0
LINE
8
Black
10
152.562
20
-130.078
11
152.56
21
-130.08
0
LINE
8
Black
10
152.56
20
-130.08
11
152.547
21
-130.087
0
LINE
8
Black
10
152.547
20
-130.087
11
152.534
21
-130.094
0
LINE
8
Black
10
152.534
20
-130.094
11
152.531
21
-130.094
0
LINE
8
Black
10
152.531
20
-130.094
11
152.529
21
-130.096
0
LINE
8
Black
10
152.529
20
-130.096
11
152.514
21
-130.097
0
LINE
8
Black
10
152.514
20
-130.097
11
152.5
21
-130.1
0
LINE
8
Black
10
152.5
20
-130.1
11
136.6
21
-130.1
0
LINE
8
Black
10
136.6
20
-130.1
11
136.6
21
-135
0
LINE
8
Black
10
136.6
20
-135
11
136.598
21
-135.009
0
LINE
8
Black
10
136.598
20
-135.009
11
136.598
21
-135.017
0
LINE
8
Black
10
136.598
20
-135.017
11
136.595
21
-135.026
0
LINE
8
Black
10
136.595
20
-135.026
11
136.594
21
-135.034
0
LINE
8
Black
10
136.594
20
-135.034
11
136.59
21
-135.042
0
LINE
8
Black
10
136.59
20
-135.042
11
136.587
21
-135.05
0
LINE
8
Black
10
136.587
20
-135.05
11
136.581
21
-135.057
0
LINE
8
Black
10
136.581
20
-135.057
11
136.577
21
-135.064
0
LINE
8
Black
10
136.577
20
-135.064
11
136.57
21
-135.07
0
LINE
8
Black
10
136.57
20
-135.07
11
136.564
21
-135.077
0
LINE
8
Black
10
136.564
20
-135.077
11
136.557
21
-135.081
0
LINE
8
Black
10
136.557
20
-135.081
11
136.55
21
-135.087
0
LINE
8
Black
10
136.55
20
-135.087
11
136.542
21
-135.09
0
LINE
8
Black
10
136.542
20
-135.09
11
136.534
21
-135.094
0
LINE
8
Black
10
136.534
20
-135.094
11
136.526
21
-135.095
0
LINE
8
Black
10
136.526
20
-135.095
11
136.517
21
-135.098
0
LINE
8
Black
10
136.517
20
-135.098
11
136.509
21
-135.098
0
LINE
8
Black
10
136.509
20
-135.098
11
136.5
21
-135.1
0
LINE
8
Black
10
136.5
20
-135.1
11
123.5
21
-135.1
0
LINE
8
Black
10
123.5
20
-135.1
11
123.491
21
-135.098
0
LINE
8
Black
10
123.491
20
-135.098
11
123.483
21
-135.098
0
LINE
8
Black
10
123.483
20
-135.098
11
123.474
21
-135.095
0
LINE
8
Black
10
123.474
20
-135.095
11
123.466
21
-135.094
0
LINE
8
Black
10
123.466
20
-135.094
11
123.458
21
-135.09
0
LINE
8
Black
10
123.458
20
-135.09
11
123.45
21
-135.087
0
LINE
8
Black
10
123.45
20
-135.087
11
123.443
21
-135.081
0
LINE
8
Black
10
123.443
20
-135.081
11
123.436
21
-135.077
0
LINE
8
Black
10
123.436
20
-135.077
11
123.43
21
-135.07
0
LINE
8
Black
10
123.43
20
-135.07
11
123.423
21
-135.064
0
LINE
8
Black
10
123.423
20
-135.064
11
123.419
21
-135.057
0
LINE
8
Black
10
123.419
20
-135.057
11
123.413
21
-135.05
0
LINE
8
Black
10
123.413
20
-135.05
11
123.41
21
-135.042
0
LINE
8
Black
10
123.41
20
-135.042
11
123.406
21
-135.034
0
LINE
8
Black
10
123.406
20
-135.034
11
123.405
21
-135.026
0
LINE
8
Black
10
123.405
20
-135.026
11
123.402
21
-135.017
0
LINE
8
Black
10
123.402
20
-135.017
11
123.402
21
-135.009
0
LINE
8
Black
10
123.402
20
-135.009
11
123.4
21
-135
0
LINE
8
Black
10
123.4
20
-135
11
123.4
21
-130.1
0
LINE
8
Black
10
123.4
20
-130.1
11
107.5
21
-130.1
0
LINE
8
Black
10
107.5
20
-130.1
11
107.486
21
-130.097
0
LINE
8
Black
10
107.486
20
-130.097
11
107.471
21
-130.096
0
LINE
8
Black
10
107.471
20
-130.096
11
107.469
21
-130.094
0
LINE
8
Black
10
107.469
20
-130.094
11
107.466
21
-130.094
0
LINE
8
Black
10
107.466
20
-130.094
11
107.453
21
-130.087
0
LINE
8
Black
10
107.453
20
-130.087
11
107.44
21
-130.08
0
LINE
8
Black
10
107.44
20
-130.08
11
107.438
21
-130.078
0
LINE
8
Black
10
107.438
20
-130.078
11
107.436
21
-130.077
0
LINE
8
Black
10
107.436
20
-130.077
11
107.426
21
-130.066
0
LINE
8
Black
10
107.426
20
-130.066
11
107.417
21
-130.055
0
LINE
8
Black
10
107.417
20
-130.055
11
107.415
21
-130.052
0
LINE
8
Black
10
107.415
20
-130.052
11
107.413
21
-130.05
0
LINE
8
Black
10
107.413
20
-130.05
11
107.408
21
-130.036
0
LINE
8
Black
10
107.408
20
-130.036
11
107.403
21
-130.023
0
LINE
8
Black
10
107.403
20
-130.023
11
107.403
21
-130.02
0
LINE
8
Black
10
107.403
20
-130.02
11
107.402
21
-130.017
0
LINE
8
Black
10
107.402
20
-130.017
11
107.402
21
-130.003
0
LINE
8
Black
10
107.402
20
-130.003
11
107.401
21
-129.989
0
LINE
8
Black
10
107.401
20
-129.989
11
107.402
21
-129.986
0
LINE
8
Black
10
107.402
20
-129.986
11
107.402
21
-129.983
0
LINE
8
Black
10
107.402
20
-129.983
11
107.406
21
-129.969
0
LINE
8
Black
10
107.406
20
-129.969
11
107.411
21
-129.955
0
LINE
8
Black
10
107.411
20
-129.955
11
114.838
21
-115.1
0
LINE
8
Black
10
114.838
20
-115.1
11
112
21
-115.1
0
LINE
8
Black
10
112
20
-115.1
11
111.986
21
-115.097
0
LINE
8
Black
10
111.986
20
-115.097
11
111.971
21
-115.096
0
LINE
8
Black
10
111.971
20
-115.096
11
111.969
21
-115.094
0
LINE
8
Black
10
111.969
20
-115.094
11
111.966
21
-115.094
0
LINE
8
Black
10
111.966
20
-115.094
11
111.953
21
-115.087
0
LINE
8
Black
10
111.953
20
-115.087
11
111.94
21
-115.08
0
LINE
8
Black
10
111.94
20
-115.08
11
111.938
21
-115.078
0
LINE
8
Black
10
111.938
20
-115.078
11
111.936
21
-115.077
0
LINE
8
Black
10
111.936
20
-115.077
11
111.926
21
-115.066
0
LINE
8
Black
10
111.926
20
-115.066
11
111.917
21
-115.055
0
LINE
8
Black
10
111.917
20
-115.055
11
111.915
21
-115.052
0
LINE
8
Black
10
111.915
20
-115.052
11
111.913
21
-115.05
0
LINE
8
Black
10
111.913
20
-115.05
11
111.908
21
-115.036
0
LINE
8
Black
10
111.908
20
-115.036
11
111.903
21
-115.023
0
LINE
8
Black
10
111.903
20
-115.023
11
111.903
21
-115.02
0
LINE
8
Black
10
111.903
20
-115.02
11
111.902
21
-115.017
0
LINE
8
Black
10
111.902
20
-115.017
11
111.902
21
-115.003
0
LINE
8
Black
10
111.902
20
-115.003
11
111.901
21
-114.989
0
LINE
8
Black
10
111.901
20
-114.989
11
111.902
21
-114.986
0
LINE
8
Black
10
111.902
20
-114.986
11
111.902
21
-114.983
0
LINE
8
Black
10
111.902
20
-114.983
11
111.906
21
-114.969
0
LINE
8
Black
10
111.906
20
-114.969
11
111.911
21
-114.955
0
LINE
8
Black
10
111.911
20
-114.955
11
119.338
21
-100.1
0
LINE
8
Black
10
119.338
20
-100.1
11
116.5
21
-100.1
0
LINE
8
Black
10
116.5
20
-100.1
11
116.486
21
-100.097
0
LINE
8
Black
10
116.486
20
-100.097
11
116.471
21
-100.096
0
LINE
8
Black
10
116.471
20
-100.096
11
116.469
21
-100.094
0
LINE
8
Black
10
116.469
20
-100.094
11
116.466
21
-100.094
0
LINE
8
Black
10
116.466
20
-100.094
11
116.453
21
-100.087
0
LINE
8
Black
10
116.453
20
-100.087
11
116.44
21
-100.08
0
LINE
8
Black
10
116.44
20
-100.08
11
116.438
21
-100.078
0
LINE
8
Black
10
116.438
20
-100.078
11
116.436
21
-100.077
0
LINE
8
Black
10
116.436
20
-100.077
11
116.426
21
-100.066
0
LINE
8
Black
10
116.426
20
-100.066
11
116.417
21
-100.055
0
LINE
8
Black
10
116.417
20
-100.055
11
116.415
21
-100.052
0
LINE
8
Black
10
116.415
20
-100.052
11
116.413
21
-100.05
0
LINE
8
Black
10
116.413
20
-100.05
11
116.408
21
-100.036
0
LINE
8
Black
10
116.408
20
-100.036
11
116.403
21
-100.023
0
LINE
8
Black
10
116.403
20
-100.023
11
116.403
21
-100.02
0
LINE
8
Black
10
116.403
20
-100.02
11
116.402
21
-100.017
0
LINE
8
Black
10
116.402
20
-100.017
11
116.402
21
-100.003
0
LINE
8
Black
10
116.402
20
-100.003
11
116.401
21
-99.9886
0
LINE
8
Black
10
116.401
20
-99.9886
11
116.402
21
-99.9857
0
LINE
8
Black
10
116.402
20
-99.9857
11
116.402
21
-99.9826
0
LINE
8
Black
10
116.402
20
-99.9826
11
116.406
21
-99.9691
0
LINE
8
Black
10
116.406
20
-99.9691
11
116.411
21
-99.9553
0
LINE
8
Black
10
116.411
20
-99.9553
11
123.911
21
-84.9553
0
LINE
8
Black
10
123.911
20
-84.9553
11
123.912
21
-84.9528
0
LINE
8
Black
10
123.912
20
-84.9528
11
123.913
21
-84.95
0
LINE
8
Black
10
123.913
20
-84.95
11
123.923
21
-84.939
0
LINE
8
Black
10
123.923
20
-84.939
11
123.931
21
-84.9274
0
LINE
8
Black
10
123.931
20
-84.9274
11
123.934
21
-84.9257
0
LINE
8
Black
10
123.934
20
-84.9257
11
123.936
21
-84.9234
0
LINE
8
Black
10
123.936
20
-84.9234
11
123.948
21
-84.9162
0
LINE
8
Black
10
123.948
20
-84.9162
11
123.96
21
-84.9082
0
LINE
8
Black
10
123.96
20
-84.9082
11
123.963
21
-84.9075
0
LINE
8
Black
10
123.963
20
-84.9075
11
123.966
21
-84.906
0
LINE
8
Black
10
123.966
20
-84.906
11
123.98
21
-84.9035
0
LINE
8
Black
10
123.98
20
-84.9035
11
123.994
21
-84.9002
0
LINE
8
Black
10
123.994
20
-84.9002
11
123.997
21
-84.9005
0
LINE
8
Black
10
123.997
20
-84.9005
11
124
21
-84.9
0
LINE
8
Black
10
124
20
-84.9
11
136
21
-84.9
0
LINE
8
Black
10
136
20
-84.9
11
136.003
21
-84.9005
0
LINE
8
Black
10
124.062
20
-85.1
11
116.662
21
-99.9
0
LINE
8
Black
10
116.662
20
-99.9
11
119.5
21
-99.9
0
LINE
8
Black
10
119.5
20
-99.9
11
119.514
21
-99.9025
0
LINE
8
Black
10
119.514
20
-99.9025
11
119.529
21
-99.9042
0
LINE
8
Black
10
119.529
20
-99.9042
11
119.531
21
-99.9055
0
LINE
8
Black
10
119.531
20
-99.9055
11
119.534
21
-99.906
0
LINE
8
Black
10
119.534
20
-99.906
11
119.547
21
-99.9132
0
LINE
8
Black
10
119.547
20
-99.9132
11
119.56
21
-99.9197
0
LINE
8
Black
10
119.56
20
-99.9197
11
119.562
21
-99.9219
0
LINE
8
Black
10
119.562
20
-99.9219
11
119.564
21
-99.9234
0
LINE
8
Black
10
119.564
20
-99.9234
11
119.574
21
-99.9344
0
LINE
8
Black
10
119.574
20
-99.9344
11
119.583
21
-99.9449
0
LINE
8
Black
10
119.583
20
-99.9449
11
119.585
21
-99.9477
0
LINE
8
Black
10
119.585
20
-99.9477
11
119.587
21
-99.95
0
LINE
8
Black
10
119.587
20
-99.95
11
119.592
21
-99.9635
0
LINE
8
Black
10
119.592
20
-99.9635
11
119.597
21
-99.9768
0
LINE
8
Black
10
119.597
20
-99.9768
11
119.597
21
-99.9798
0
LINE
8
Black
10
119.597
20
-99.9798
11
119.598
21
-99.9826
0
LINE
8
Black
10
119.598
20
-99.9826
11
119.598
21
-99.9971
0
LINE
8
Black
10
119.598
20
-99.9971
11
119.599
21
-100.011
0
LINE
8
Black
10
119.599
20
-100.011
11
119.598
21
-100.014
0
LINE
8
Black
10
119.598
20
-100.014
11
119.598
21
-100.017
0
LINE
8
Black
10
119.598
20
-100.017
11
119.594
21
-100.031
0
LINE
8
Black
10
119.594
20
-100.031
11
119.589
21
-100.045
0
LINE
8
Black
10
119.589
20
-100.045
11
112.162
21
-114.9
0
LINE
8
Black
10
112.162
20
-114.9
11
115
21
-114.9
0
LINE
8
Black
10
115
20
-114.9
11
115.014
21
-114.903
0
LINE
8
Black
10
115.014
20
-114.903
11
115.029
21
-114.904
0
LINE
8
Black
10
115.029
20
-114.904
11
115.031
21
-114.906
0
LINE
8
Black
10
115.031
20
-114.906
11
115.034
21
-114.906
0
LINE
8
Black
10
115.034
20
-114.906
11
115.047
21
-114.913
0
LINE
8
Black
10
115.047
20
-114.913
11
115.06
21
-114.92
0
LINE
8
Black
10
115.06
20
-114.92
11
115.062
21
-114.922
0
LINE
8
Black
10
115.062
20
-114.922
11
115.064
21
-114.923
0
LINE
8
Black
10
115.064
20
-114.923
11
115.074
21
-114.934
0
LINE
8
Black
10
115.074
20
-114.934
11
115.083
21
-114.945
0
LINE
8
Black
10
115.083
20
-114.945
11
115.085
21
-114.948
0
LINE
8
Black
10
115.085
20
-114.948
11
115.087
21
-114.95
0
LINE
8
Black
10
115.087
20
-114.95
11
115.092
21
-114.964
0
LINE
8
Black
10
115.092
20
-114.964
11
115.097
21
-114.977
0
LINE
8
Black
10
115.097
20
-114.977
11
115.097
21
-114.98
0
LINE
8
Black
10
115.097
20
-114.98
11
115.098
21
-114.983
0
LINE
8
Black
10
115.098
20
-114.983
11
115.098
21
-114.997
0
LINE
8
Black
10
115.098
20
-114.997
11
115.099
21
-115.011
0
LINE
8
Black
10
115.099
20
-115.011
11
115.098
21
-115.014
0
LINE
8
Black
10
115.098
20
-115.014
11
115.098
21
-115.017
0
LINE
8
Black
10
115.098
20
-115.017
11
115.094
21
-115.031
0
LINE
8
Black
10
115.094
20
-115.031
11
115.089
21
-115.045
0
LINE
8
Black
10
115.089
20
-115.045
11
107.662
21
-129.9
0
LINE
8
Black
10
107.662
20
-129.9
11
123.5
21
-129.9
0
LINE
8
Black
10
123.5
20
-129.9
11
123.509
21
-129.902
0
LINE
8
Black
10
123.509
20
-129.902
11
123.517
21
-129.902
0
LINE
8
Black
10
123.517
20
-129.902
11
123.526
21
-129.905
0
LINE
8
Black
10
123.526
20
-129.905
11
123.534
21
-129.906
0
LINE
8
Black
10
123.534
20
-129.906
11
123.542
21
-129.91
0
LINE
8
Black
10
123.542
20
-129.91
11
123.55
21
-129.913
0
LINE
8
Black
10
123.55
20
-129.913
11
123.557
21
-129.919
0
LINE
8
Black
10
123.557
20
-129.919
11
123.564
21
-129.923
0
LINE
8
Black
10
123.564
20
-129.923
11
123.57
21
-129.93
0
LINE
8
Black
10
123.57
20
-129.93
11
123.577
21
-129.936
0
LINE
8
Black
10
123.577
20
-129.936
11
123.581
21
-129.943
0
LINE
8
Black
10
123.581
20
-129.943
11
123.587
21
-129.95
0
LINE
8
Black
10
123.587
20
-129.95
11
123.59
21
-129.958
0
LINE
8
Black
10
123.59
20
-129.958
11
123.594
21
-129.966
0
LINE
8
Black
10
123.594
20
-129.966
11
123.595
21
-129.974
0
LINE
8
Black
10
123.595
20
-129.974
11
123.598
21
-129.983
0
LINE
8
Black
10
123.598
20
-129.983
11
123.598
21
-129.991
0
LINE
8
Black
10
123.598
20
-129.991
11
123.6
21
-130
0
LINE
8
Black
10
123.6
20
-130
11
123.6
21
-134.9
0
LINE
8
Black
10
123.6
20
-134.9
11
136.4
21
-134.9
0
LINE
8
Black
10
136.4
20
-134.9
11
136.4
21
-130
0
LINE
8
Black
10
136.4
20
-130
11
136.402
21
-129.991
0
LINE
8
Black
10
136.402
20
-129.991
11
136.402
21
-129.983
0
LINE
8
Black
10
136.402
20
-129.983
11
136.405
21
-129.974
0
LINE
8
Black
10
136.405
20
-129.974
11
136.406
21
-129.966
0
LINE
8
Black
10
136.406
20
-129.966
11
136.41
21
-129.958
0
LINE
8
Black
10
136.41
20
-129.958
11
136.413
21
-129.95
0
LINE
8
Black
10
136.413
20
-129.95
11
136.419
21
-129.943
0
LINE
8
Black
10
136.419
20
-129.943
11
136.423
21
-129.936
0
LINE
8
Black
10
136.423
20
-129.936
11
136.43
21
-129.93
0
LINE
8
Black
10
136.43
20
-129.93
11
136.436
21
-129.923
0
LINE
8
Black
10
136.436
20
-129.923
11
136.443
21
-129.919
0
LINE
8
Black
10
136.443
20
-129.919
11
136.45
21
-129.913
0
LINE
8
Black
10
136.45
20
-129.913
11
136.458
21
-129.91
0
LINE
8
Black
10
136.458
20
-129.91
11
136.466
21
-129.906
0
LINE
8
Black
10
136.466
20
-129.906
11
136.474
21
-129.905
0
LINE
8
Black
10
136.474
20
-129.905
11
136.483
21
-129.902
0
LINE
8
Black
10
136.483
20
-129.902
11
136.491
21
-129.902
0
LINE
8
Black
10
136.491
20
-129.902
11
136.5
21
-129.9
0
LINE
8
Black
10
136.5
20
-129.9
11
152.338
21
-129.9
0
LINE
8
Black
10
152.338
20
-129.9
11
144.911
21
-115.045
0
LINE
8
Black
10
144.911
20
-115.045
11
144.906
21
-115.031
0
LINE
8
Black
10
144.906
20
-115.031
11
144.902
21
-115.017
0
LINE
8
Black
10
144.902
20
-115.017
11
144.902
21
-115.014
0
LINE
8
Black
10
144.902
20
-115.014
11
144.901
21
-115.011
0
LINE
8
Black
10
144.901
20
-115.011
11
144.902
21
-114.997
0
LINE
8
Black
10
144.902
20
-114.997
11
144.902
21
-114.983
0
LINE
8
Black
10
144.902
20
-114.983
11
144.903
21
-114.98
0
LINE
8
Black
10
144.903
20
-114.98
11
144.903
21
-114.977
0
LINE
8
Black
10
144.903
20
-114.977
11
144.908
21
-114.964
0
LINE
8
Black
10
144.908
20
-114.964
11
144.913
21
-114.95
0
LINE
8
Black
10
144.913
20
-114.95
11
144.915
21
-114.948
0
LINE
8
Black
10
144.915
20
-114.948
11
144.917
21
-114.945
0
LINE
8
Black
10
144.917
20
-114.945
11
144.926
21
-114.934
0
LINE
8
Black
10
144.926
20
-114.934
11
144.936
21
-114.923
0
LINE
8
Black
10
144.936
20
-114.923
11
144.938
21
-114.922
0
LINE
8
Black
10
144.938
20
-114.922
11
144.94
21
-114.92
0
LINE
8
Black
10
144.94
20
-114.92
11
144.953
21
-114.913
0
LINE
8
Black
10
144.953
20
-114.913
11
144.966
21
-114.906
0
LINE
8
Black
10
144.966
20
-114.906
11
144.969
21
-114.906
0
LINE
8
Black
10
144.969
20
-114.906
11
144.971
21
-114.904
0
LINE
8
Black
10
144.971
20
-114.904
11
144.986
21
-114.903
0
LINE
8
Black
10
144.986
20
-114.903
11
145
21
-114.9
0
LINE
8
Black
10
145
20
-114.9
11
147.838
21
-114.9
0
LINE
8
Black
10
147.838
20
-114.9
11
140.411
21
-100.045
0
LINE
8
Black
10
140.411
20
-100.045
11
140.406
21
-100.031
0
LINE
8
Black
10
140.406
20
-100.031
11
140.402
21
-100.017
0
LINE
8
Black
10
140.402
20
-100.017
11
140.402
21
-100.014
0
LINE
8
Black
10
140.402
20
-100.014
11
140.401
21
-100.011
0
LINE
8
Black
10
140.401
20
-100.011
11
140.402
21
-99.9971
0
LINE
8
Black
10
140.402
20
-99.9971
11
140.402
21
-99.9826
0
LINE
8
Black
10
140.402
20
-99.9826
11
140.403
21
-99.9798
0
LINE
8
Black
10
140.403
20
-99.9798
11
140.403
21
-99.9768
0
LINE
8
Black
10
140.403
20
-99.9768
11
140.408
21
-99.9635
0
LINE
8
Black
10
140.408
20
-99.9635
11
140.413
21
-99.95
0
LINE
8
Black
10
140.413
20
-99.95
11
140.415
21
-99.9477
0
LINE
8
Black
10
140.415
20
-99.9477
11
140.417
21
-99.9449
0
LINE
8
Black
10
140.417
20
-99.9449
11
140.426
21
-99.9344
0
LINE
8
Black
10
140.426
20
-99.9344
11
140.436
21
-99.9234
0
LINE
8
Black
10
140.436
20
-99.9234
11
140.438
21
-99.9219
0
LINE
8
Black
10
140.438
20
-99.9219
11
140.44
21
-99.9197
0
LINE
8
Black
10
140.44
20
-99.9197
11
140.453
21
-99.9132
0
LINE
8
Black
10
140.453
20
-99.9132
11
140.466
21
-99.906
0
LINE
8
Black
10
140.466
20
-99.906
11
140.469
21
-99.9055
0
LINE
8
Black
10
140.469
20
-99.9055
11
140.471
21
-99.9042
0
LINE
8
Black
10
140.471
20
-99.9042
11
140.486
21
-99.9025
0
LINE
8
Black
10
140.486
20
-99.9025
11
140.5
21
-99.9
0
LINE
8
Black
10
140.5
20
-99.9
11
143.338
21
-99.9
0
LINE
8
Black
10
143.338
20
-99.9
11
135.938
21
-85.1
0
LINE
8
Black
10
135.938
20
-85.1
11
124.062
21
-85.1
  0
ENDSEC
  0
EOF
